<svg width="406" height="306" viewBox="0 0 406 306" fill="none" xmlns="http://www.w3.org/2000/svg">
<path opacity="0.18" d="M147.156 24.8607C136.486 34.7468 128.579 47.4545 117.242 56.5472C98.072 71.9512 72.054 75.0139 49.5105 84.8196C34.5986 91.3065 20.4599 101.584 13.8625 116.451C8.53543 128.501 9.20822 142.705 14.7462 154.609C17.3922 160.317 18.568 166.596 18.1663 172.874C17.7647 179.152 15.7984 185.23 12.4467 190.553C4.23759 203.557 -0.712959 218.414 0.0853541 233.672C1.32048 257.14 19.1394 280.291 42.5416 282.45C50.5749 283.193 58.6484 281.561 66.6014 280.105C114.636 271.319 165.477 269.059 211.166 286.266C223.688 290.985 235.743 297.136 248.762 300.239C263.971 303.864 279.826 303.176 295.456 302.468C319.847 301.363 348.306 297.949 360.762 276.942C378.029 247.821 350.525 211.465 354.436 177.846C356.6 159.269 368.314 142.931 370.784 124.409C373.465 104.275 363.92 82.992 347.101 71.6047C323.744 55.7941 291.445 59.63 267.329 44.9943C248.25 33.4112 235.136 10.7773 212.643 4.61672C190.581 -1.41833 163.212 9.99905 147.156 24.8607Z" fill="#B9B4E4"/>
<path opacity="0.11" d="M45.6494 227.105C43.2897 210.903 37.6613 195.303 35.3818 179.086C33.1024 162.868 34.689 145.034 45.0771 132.392C51.8552 124.143 61.5956 118.996 71.1202 114.171C79.5903 109.879 88.3115 105.601 97.7306 104.436C106.035 103.432 114.415 104.863 122.719 105.857C138.344 107.725 154.255 107.971 169.765 105.31C190.014 101.795 209.158 93.7617 228.95 88.3241C248.336 82.9719 267.525 80.2456 289.2 90.3325C304.182 97.3114 315.238 111.882 318.823 127.989C324.617 154.012 311.533 182.851 322.534 207.132C325.636 213.971 330.456 219.865 334.393 226.262C339.231 234.148 342.723 242.785 344.726 251.818C345.414 254.926 345.921 258.204 345.042 261.262C342.783 269.094 333.102 271.7 324.959 272.343C297.881 274.482 270.829 269.431 243.822 266.494C199.98 261.734 155.741 262.572 111.824 265.851C101.076 266.654 90.3349 267.591 79.6003 268.663C70.9394 269.511 54.4962 274.688 46.3323 272.222C37.2295 269.466 43.2043 263.496 45.1323 254.926C47.1959 245.828 46.985 236.263 45.6494 227.105Z" fill="#B9B4E4"/>
<path d="M192.8 71.8457C192.8 71.8457 188.648 88.7258 182.442 93.4353C176.036 98.2955 169.388 88.9567 169.388 88.9567L165.688 95.6445C165.688 95.6445 172.531 106.69 179.43 106.946C186.328 107.202 192.383 101.027 192.383 101.027L192.8 71.8457Z" fill="#B9B4E4"/>
<path d="M157.338 60.2525L158.277 59.8358L177.416 64.701L183.165 103.462H182.447L157.338 60.2525Z" fill="#3F3D56"/>
<path opacity="0.05" d="M66.8022 269.401C66.8022 269.401 25.054 272.197 19.0491 276.199C13.0441 280.2 60.0693 281.079 135.106 278.825C210.142 276.57 267.917 278.825 308.827 282.952C349.736 287.079 405.227 286.281 405.995 276.174C406.763 266.067 304.7 265.946 304.7 265.946L66.8022 269.401Z" fill="#000405"/>
<path d="M326.354 188.947C326.354 188.947 324.954 200.605 315.946 201.75H276.382L270.754 137.026H312.427C315.791 137.026 322.684 140.651 324.06 145.783C324.245 146.733 324.367 147.694 324.426 148.66C325.35 158.616 326.354 188.947 326.354 188.947Z" fill="#B9B4E4"/>
<path d="M380.168 65.66H342.009L330.682 54.5388L330.18 54.0367H368.188C371.552 54.0367 378.446 57.6618 379.821 62.7931C379.997 63.7405 380.113 64.698 380.168 65.66Z" fill="url(#paint0_linear_199_7209)"/>
<path d="M71.9084 143.051L68.183 141.43C67.6981 141.219 67.3008 140.847 67.0578 140.378C66.8148 139.908 66.741 139.369 66.8489 138.852C66.9568 138.334 67.2397 137.869 67.6501 137.536C68.0604 137.203 68.5731 137.021 69.1018 137.021H270.754C273.245 136.998 275.709 137.537 277.963 138.597C280.217 139.658 282.203 141.213 283.773 143.147C285.082 144.734 285.948 146.639 286.283 148.67C287.192 154.73 286.635 181.124 286.384 191.035C286.248 196.418 282.282 201.077 276.939 201.72L276.367 201.775H81.0564L71.9084 143.051Z" fill="#B9B4E4"/>
<path d="M71.9084 143.051L68.183 141.43C67.6981 141.219 67.3008 140.847 67.0578 140.378C66.8148 139.908 66.741 139.369 66.8489 138.852C66.9568 138.334 67.2397 137.869 67.6501 137.536C68.0604 137.203 68.5731 137.021 69.1018 137.021H270.754C273.245 136.998 275.709 137.537 277.963 138.597C280.217 139.658 282.203 141.213 283.773 143.147C285.082 144.734 285.948 146.639 286.283 148.67C287.192 154.73 286.635 181.124 286.384 191.035C286.248 196.418 282.282 201.077 276.939 201.72L276.367 201.775H81.0564L71.9084 143.051Z" fill="#B9B4E4"/>
<path d="M286.399 191.01C286.263 196.393 282.297 201.052 276.954 201.695L276.382 201.75H81.0715L71.9084 143.051L68.183 141.43C67.6981 141.219 67.3008 140.847 67.0578 140.378C66.8148 139.908 66.741 139.369 66.8489 138.852C66.9568 138.334 67.2397 137.869 67.6501 137.536C68.0604 137.203 68.5731 137.021 69.1018 137.021H270.754C273.245 136.998 275.709 137.537 277.963 138.597C280.217 139.658 282.203 141.213 283.773 143.147C285.082 144.734 285.948 146.639 286.283 148.67C287.192 154.705 286.65 181.099 286.399 191.01Z" fill="url(#paint1_linear_199_7209)"/>
<path opacity="0.61" d="M61.7965 201.795H277.09C277.835 201.795 278.549 201.5 279.076 200.973C279.604 200.447 279.9 199.733 279.902 198.988C279.902 198.619 279.829 198.254 279.688 197.912C279.546 197.571 279.339 197.261 279.078 197C278.817 196.739 278.507 196.532 278.166 196.391C277.825 196.249 277.459 196.177 277.09 196.177H61.7965C61.0508 196.177 60.3356 196.473 59.8083 197C59.281 197.528 58.9848 198.243 58.9848 198.988C58.9861 199.733 59.2829 200.447 59.8101 200.973C60.3372 201.5 61.0516 201.795 61.7965 201.795Z" fill="url(#paint2_linear_199_7209)"/>
<path d="M61.7965 201.795H277.09C277.835 201.795 278.549 201.5 279.076 200.973C279.604 200.447 279.9 199.733 279.902 198.988C279.902 198.619 279.829 198.254 279.688 197.912C279.546 197.571 279.339 197.261 279.078 197C278.817 196.739 278.507 196.532 278.166 196.391C277.825 196.249 277.459 196.177 277.09 196.177H61.7965C61.0508 196.177 60.3356 196.473 59.8083 197C59.281 197.528 58.9848 198.243 58.9848 198.988C58.9861 199.733 59.2829 200.447 59.8101 200.973C60.3372 201.5 61.0516 201.795 61.7965 201.795Z" fill="#B9B4E4"/>
<path d="M321.268 220.217V255.337C321.268 259.919 319.449 264.313 316.21 267.554C312.971 270.794 308.578 272.616 303.997 272.619H76.8489C74.5834 272.622 72.3394 272.179 70.2451 271.315C68.1508 270.451 66.2471 269.183 64.6429 267.584C63.0386 265.984 61.7651 264.084 60.895 261.992C60.025 259.901 59.5755 257.658 59.5722 255.392V220.217C59.5681 217.024 60.4549 213.895 62.1329 211.179C62.4992 210.577 62.9051 210 63.3479 209.452C64.9638 207.422 67.0172 205.783 69.3549 204.657C71.6926 203.531 74.2543 202.948 76.8489 202.95H303.992C308.573 202.952 312.966 204.774 316.205 208.013C319.445 211.252 321.266 215.645 321.268 220.227V220.217Z" fill="#B9B4E4"/>
<path d="M232.816 272.619H76.8489C73.5391 272.622 70.298 271.675 67.5112 269.889C64.7243 268.104 62.509 265.555 61.1287 262.547H222.895C222.895 262.547 225.225 271.083 232.816 272.619Z" fill="url(#paint3_linear_199_7209)"/>
<path d="M232.816 202.93C225.646 204.115 223.643 211.159 223.643 211.159H62.1329L63.3479 209.432C64.9638 207.402 67.0172 205.763 69.3549 204.637C71.6926 203.511 74.2543 202.927 76.8489 202.93H232.816Z" fill="url(#paint4_linear_199_7209)"/>
<path d="M321.268 220.216V255.337C321.271 258.428 320.443 261.463 318.872 264.125C317.301 266.787 315.044 268.978 312.336 270.47H241C239.576 270.471 238.166 270.191 236.85 269.646C235.534 269.102 234.338 268.304 233.33 267.297C232.323 266.291 231.523 265.095 230.978 263.78C230.432 262.464 230.151 261.054 230.15 259.63V217.013C230.15 215.588 230.43 214.177 230.975 212.86C231.52 211.544 232.319 210.347 233.327 209.34C234.334 208.332 235.531 207.533 236.847 206.988C238.164 206.443 239.575 206.162 241 206.163H314.053C316.288 207.762 318.108 209.872 319.363 212.316C320.618 214.76 321.271 217.469 321.268 220.216Z" fill="url(#paint5_linear_199_7209)"/>
<path d="M321.268 220.216V255.337C321.268 255.985 321.233 256.632 321.163 257.275C321.133 257.556 321.093 257.833 321.047 258.109C320.861 259.312 320.541 260.491 320.093 261.623C319.988 261.909 319.873 262.186 319.742 262.462C319.18 263.712 318.472 264.892 317.633 265.976C317.412 266.258 317.181 266.539 316.935 266.81C315.625 268.294 314.069 269.542 312.336 270.5H251.248C249.705 270.503 248.179 270.175 246.773 269.538C245.368 268.902 244.115 267.971 243.099 266.81C242.863 266.544 242.642 266.266 242.436 265.976C241.669 264.918 241.106 263.726 240.774 262.462C240.699 262.191 240.639 261.909 240.588 261.623C240.464 260.97 240.402 260.306 240.403 259.64V217.013C240.403 216.254 240.483 215.496 240.644 214.754C240.695 214.472 240.763 214.193 240.85 213.92C241.222 212.648 241.828 211.456 242.637 210.406C242.858 210.115 243.094 209.837 243.345 209.572C244.356 208.489 245.58 207.626 246.94 207.037C248.299 206.448 249.766 206.145 251.248 206.148H314.053C315.399 207.112 316.598 208.265 317.613 209.572C317.824 209.843 318.03 210.12 318.226 210.406C318.983 211.499 319.606 212.679 320.083 213.92C320.194 214.196 320.299 214.478 320.385 214.754C320.772 215.893 321.031 217.072 321.158 218.268C321.193 218.545 321.218 218.826 321.233 219.107C321.248 219.388 321.268 219.87 321.268 220.216Z" fill="#B9B4E4"/>
<path d="M321.268 220.216V255.337C321.268 255.985 321.233 256.632 321.163 257.275C321.133 257.556 321.093 257.833 321.047 258.109C320.861 259.312 320.541 260.491 320.093 261.623C319.988 261.909 319.873 262.186 319.742 262.462C319.18 263.712 318.472 264.892 317.633 265.976C317.412 266.258 317.181 266.539 316.935 266.81C315.625 268.294 314.069 269.542 312.336 270.5H251.248C249.705 270.503 248.179 270.175 246.773 269.538C245.368 268.902 244.115 267.971 243.099 266.81C242.863 266.544 242.642 266.266 242.436 265.976C241.669 264.918 241.106 263.726 240.774 262.462C240.699 262.191 240.639 261.909 240.588 261.623C240.464 260.97 240.402 260.306 240.403 259.64V217.013C240.403 216.254 240.483 215.496 240.644 214.754C240.695 214.472 240.763 214.193 240.85 213.92C241.222 212.648 241.828 211.456 242.637 210.406C242.858 210.115 243.094 209.837 243.345 209.572C244.356 208.489 245.58 207.626 246.94 207.037C248.299 206.448 249.766 206.145 251.248 206.148H314.053C315.399 207.112 316.598 208.265 317.613 209.572C317.824 209.843 318.03 210.12 318.226 210.406C318.983 211.499 319.606 212.679 320.083 213.92C320.194 214.196 320.299 214.478 320.385 214.754C320.772 215.893 321.031 217.072 321.158 218.268C321.193 218.545 321.218 218.826 321.233 219.107C321.248 219.388 321.268 219.87 321.268 220.216Z" fill="url(#paint6_linear_199_7209)"/>
<path d="M318.226 210.421H242.637C242.858 210.131 243.094 209.852 243.345 209.587H317.608C317.819 209.859 318.03 210.135 318.226 210.421Z" fill="white"/>
<path d="M320.385 214.754H240.644C240.695 214.472 240.763 214.193 240.85 213.92H320.083C320.194 214.196 320.299 214.478 320.385 214.754Z" fill="white"/>
<path d="M321.233 219.092H240.398V218.253H321.158C321.193 218.529 321.218 218.811 321.233 219.092Z" fill="white"/>
<path d="M321.273 222.591H240.403V223.425H321.273V222.591Z" fill="white"/>
<path d="M321.273 226.924H240.403V227.758H321.273V226.924Z" fill="white"/>
<path d="M321.273 231.262H240.403V232.096H321.273V231.262Z" fill="white"/>
<path d="M321.273 235.6H240.403V236.429H321.273V235.6Z" fill="white"/>
<path d="M321.273 239.933H240.403V240.762H321.273V239.933Z" fill="white"/>
<path d="M321.273 244.271H240.403V245.1H321.273V244.271Z" fill="white"/>
<path d="M321.273 248.604H240.403V249.433H321.273V248.604Z" fill="white"/>
<path d="M321.273 252.942H240.403V253.776H321.273V252.942Z" fill="white"/>
<path d="M321.163 257.275C321.133 257.556 321.093 257.833 321.047 258.109H240.403V257.275H321.163Z" fill="white"/>
<path d="M320.119 261.608C320.013 261.894 319.898 262.171 319.767 262.447H240.789C240.714 262.176 240.654 261.894 240.604 261.608H320.119Z" fill="white"/>
<path d="M317.633 265.946C317.412 266.227 317.181 266.509 316.935 266.78H243.099C242.863 266.514 242.642 266.236 242.436 265.946H317.633Z" fill="white"/>
<path d="M221.047 194.831H272.511C270.328 195.92 267.921 196.484 265.482 196.478H74.1276C70.9661 196.506 67.8731 195.557 65.2709 193.762C64.5338 193.254 63.8493 192.673 63.2274 192.029C63.0266 191.824 62.8308 191.608 62.645 191.392C61.9444 190.573 61.3475 189.671 60.8676 188.706C60.7622 188.495 60.6618 188.279 60.5714 188.068C60.1988 187.207 59.9291 186.306 59.768 185.382C59.7329 185.171 59.6978 184.96 59.6726 184.739C59.6125 184.239 59.5824 183.736 59.5823 183.233V156.291C59.5773 156.005 59.5873 155.718 59.6124 155.433C59.6425 155.151 59.6475 155.006 59.6726 154.795C59.7848 153.878 60.0022 152.976 60.3203 152.109C60.4007 151.893 60.486 151.682 60.5764 151.466C60.9838 150.51 61.5102 149.609 62.1429 148.785L62.645 148.142C63.0158 147.71 63.4132 147.301 63.8349 146.917C66.6657 144.393 70.3353 143.015 74.1276 143.051H265.482C268.489 143.047 271.433 143.919 273.952 145.562H221.047C220.242 145.561 219.439 145.658 218.657 145.853C217.052 146.234 215.578 147.038 214.39 148.183C214.178 148.384 213.978 148.599 213.792 148.825C213.12 149.612 212.608 150.523 212.286 151.506C212.215 151.717 212.157 151.932 212.11 152.149C211.976 152.717 211.908 153.298 211.909 153.881V186.552C211.911 187.058 211.963 187.562 212.065 188.058C212.106 188.274 212.16 188.486 212.226 188.696C212.51 189.674 212.984 190.587 213.622 191.382C213.797 191.604 213.983 191.816 214.179 192.019C215.041 192.912 216.078 193.617 217.227 194.088C218.437 194.592 219.737 194.845 221.047 194.831Z" fill="#B9B4E4"/>
<path d="M280.032 156.487V183.745C280.037 183.9 280.027 184.054 280.002 184.207C279.972 184.358 280.002 184.513 279.962 184.664C279.932 184.801 279.914 184.94 279.907 185.081C279.907 185.216 279.872 185.297 279.851 185.402C279.847 185.456 279.837 185.51 279.821 185.563C279.796 185.708 279.766 185.859 279.731 186.004C279.696 186.15 279.686 186.195 279.656 186.291C279.626 186.386 279.61 186.476 279.58 186.572C279.55 186.667 279.525 186.773 279.495 186.873L279.39 187.179C279.378 187.266 279.351 187.349 279.309 187.425C279.279 187.506 279.229 187.641 279.184 187.747L279.048 188.073C279.027 188.134 279 188.193 278.968 188.249C278.936 188.333 278.899 188.415 278.857 188.495C278.827 188.565 278.787 188.635 278.752 188.706C278.717 188.776 278.646 188.922 278.586 189.022C278.526 189.122 278.415 189.348 278.32 189.524L278.164 189.775C278.024 190.006 277.878 190.227 277.723 190.443C277.642 190.558 277.562 190.664 277.482 190.769C277.321 190.985 277.15 191.191 276.98 191.397C276.809 191.603 276.598 191.829 276.392 192.034C275.981 192.455 275.543 192.849 275.082 193.214C275.074 193.228 275.062 193.239 275.047 193.244C274.896 193.365 274.745 193.475 274.59 193.591L274.088 193.937L273.585 194.259C273.425 194.359 273.264 194.449 273.083 194.545L272.506 194.851H221.047C219.736 194.857 218.437 194.599 217.227 194.093C216.081 193.622 215.043 192.922 214.179 192.034C213.983 191.831 213.797 191.619 213.622 191.397C212.985 190.607 212.51 189.699 212.226 188.726C212.159 188.518 212.106 188.307 212.065 188.093C211.963 187.597 211.911 187.093 211.909 186.587V154.042C211.908 153.462 211.976 152.884 212.11 152.32C212.157 152.104 212.215 151.891 212.286 151.682C212.608 150.703 213.12 149.797 213.792 149.016C213.978 148.79 214.178 148.575 214.39 148.373C215.583 147.238 217.055 146.437 218.657 146.054C219.44 145.863 220.242 145.767 221.047 145.767H273.952C274.183 145.918 274.414 146.074 274.635 146.239L274.891 146.43C275.24 146.69 275.575 146.968 275.895 147.264L276.171 147.525L276.372 147.726L276.643 148.007L276.914 148.308L276.969 148.373L277.01 148.423C277.17 148.614 277.331 148.815 277.482 149.016C277.562 149.116 277.637 149.222 277.713 149.322C277.718 149.338 277.729 149.353 277.743 149.362C277.88 149.557 278.01 149.752 278.134 149.95L278.35 150.301C278.481 150.522 278.606 150.753 278.722 150.979C278.777 151.1 278.837 151.21 278.892 151.326C278.948 151.441 279.003 151.567 279.048 151.682C279.093 151.797 279.144 151.893 279.184 152.003C279.224 152.114 279.269 152.214 279.304 152.32L279.415 152.636C279.567 153.071 279.689 153.515 279.781 153.966C279.798 154.024 279.81 154.083 279.816 154.142C279.827 154.249 279.847 154.355 279.877 154.459C279.877 154.564 279.932 154.815 279.957 154.991C279.982 155.166 280.007 155.412 280.017 155.628V155.97C280.017 156.105 280.032 156.311 280.032 156.487Z" fill="url(#paint7_linear_199_7209)"/>
<path d="M217.227 194.068C216.092 194.344 214.922 194.595 213.712 194.831H77.2807C73.2523 194.864 69.2301 194.506 65.2709 193.762C64.5338 193.254 63.8493 192.673 63.2274 192.03C63.0266 191.824 62.8308 191.608 62.645 191.392C61.9444 190.573 61.3475 189.671 60.8676 188.706C60.7622 188.495 60.6618 188.279 60.5714 188.068C60.1988 187.207 59.9291 186.306 59.768 185.382C59.7329 185.171 59.6978 184.96 59.6726 184.739C59.6125 184.239 59.5824 183.736 59.5823 183.233V156.291C59.5773 156.005 59.5873 155.718 59.6124 155.433C59.6425 155.151 59.6475 155.006 59.6726 154.795C59.7848 153.878 60.0022 152.976 60.3203 152.109C60.4007 151.893 60.486 151.682 60.5764 151.466C60.9838 150.51 61.5102 149.609 62.1429 148.785L62.645 148.142C63.0158 147.71 63.4132 147.301 63.8349 146.917C68.2558 145.964 72.7684 145.501 77.2908 145.537H217.533L218.657 145.828C217.052 146.209 215.578 147.013 214.39 148.157C214.178 148.359 213.978 148.574 213.792 148.8C213.12 149.587 212.608 150.498 212.286 151.481C212.215 151.692 212.157 151.907 212.11 152.124C211.976 152.691 211.908 153.273 211.909 153.856V186.527C211.911 187.033 211.963 187.537 212.065 188.033C212.106 188.248 212.16 188.461 212.226 188.671C212.51 189.649 212.984 190.562 213.622 191.357C213.797 191.578 213.983 191.791 214.179 191.994C215.04 192.889 216.078 193.595 217.227 194.068Z" fill="#B9B4E4"/>
<path d="M217.227 194.068C216.092 194.344 214.922 194.595 213.712 194.831H77.2807C73.2523 194.864 69.2301 194.506 65.2709 193.762C64.5338 193.254 63.8493 192.673 63.2274 192.03C63.0266 191.824 62.8308 191.608 62.645 191.392C61.9444 190.573 61.3475 189.671 60.8676 188.706C60.7622 188.495 60.6618 188.279 60.5714 188.068C60.1988 187.207 59.9291 186.306 59.768 185.382C59.7329 185.171 59.6978 184.96 59.6726 184.739C59.6125 184.239 59.5824 183.736 59.5823 183.233V156.291C59.5773 156.005 59.5873 155.718 59.6124 155.433C59.6425 155.151 59.6475 155.006 59.6726 154.795C59.7848 153.878 60.0022 152.976 60.3203 152.109C60.4007 151.893 60.486 151.682 60.5764 151.466C60.9838 150.51 61.5102 149.609 62.1429 148.785L62.645 148.142C63.0158 147.71 63.4132 147.301 63.8349 146.917C68.2558 145.964 72.7684 145.501 77.2908 145.537H217.533L218.657 145.828C217.052 146.209 215.578 147.013 214.39 148.157C214.178 148.359 213.978 148.574 213.792 148.8C213.12 149.587 212.608 150.498 212.286 151.481C212.215 151.692 212.157 151.907 212.11 152.124C211.976 152.691 211.908 153.273 211.909 153.856V186.527C211.911 187.033 211.963 187.537 212.065 188.033C212.106 188.248 212.16 188.461 212.226 188.671C212.51 189.649 212.984 190.562 213.622 191.357C213.797 191.578 213.983 191.791 214.179 191.994C215.04 192.889 216.078 193.595 217.227 194.068Z" fill="url(#paint8_linear_199_7209)"/>
<path d="M276.382 196.829C275.978 197.297 275.54 197.733 275.072 198.135C275.537 197.729 275.975 197.293 276.382 196.829Z" fill="url(#paint9_linear_199_7209)"/>
<path d="M277.698 149.694C277.622 149.578 277.547 149.463 277.467 149.352C277.316 149.131 277.155 148.911 276.995 148.7C277.246 149.021 277.482 149.352 277.698 149.694Z" fill="url(#paint10_linear_199_7209)"/>
<path d="M279.289 153.002C279.329 153.118 279.364 153.233 279.4 153.349C279.334 153.113 279.254 152.882 279.169 152.651C279.214 152.766 279.254 152.882 279.289 153.002Z" fill="url(#paint11_linear_199_7209)"/>
<path d="M280.032 156.487V184.046C280.031 184.241 280.014 184.436 279.982 184.629C279.893 185.456 279.715 186.27 279.45 187.059C279.39 187.255 279.324 187.445 279.249 187.631C277.983 190.781 275.59 193.348 272.536 194.831H212.407C207.767 194.831 203.936 191.698 203.369 187.641C203.334 187.449 203.314 187.254 203.309 187.059C203.29 186.892 203.282 186.724 203.284 186.557V154.042C203.284 149.468 207.371 145.767 212.422 145.767H273.952C277.652 148.157 280.032 152.089 280.032 156.487Z" fill="#B9B4E4"/>
<path d="M277.467 148.785H213.792C213.978 148.559 214.178 148.344 214.39 148.142H276.939C277.13 148.344 277.306 148.559 277.467 148.785Z" fill="white"/>
<path d="M279.289 152.089H212.11C212.157 151.871 212.215 151.657 212.286 151.446H279.063C279.128 151.677 279.214 151.893 279.289 152.089Z" fill="white"/>
<path d="M280.007 155.433H211.909V154.79H279.952C279.952 155.001 279.992 155.217 280.007 155.433Z" fill="white"/>
<path d="M280.037 158.114H211.909V158.756H280.037V158.114Z" fill="white"/>
<path d="M280.037 161.438H211.909V162.08H280.037V161.438Z" fill="white"/>
<path d="M280.037 164.761H211.909V165.404H280.037V164.761Z" fill="white"/>
<path d="M280.037 168.09H211.909V168.728H280.037V168.09Z" fill="white"/>
<path d="M280.037 171.414H211.909V172.052H280.037V171.414Z" fill="white"/>
<path d="M280.037 174.738H211.909V175.375H280.037V174.738Z" fill="white"/>
<path d="M280.037 178.062H211.909V178.699H280.037V178.062Z" fill="white"/>
<path d="M280.037 181.385H211.909V182.028H280.037V181.385Z" fill="white"/>
<path d="M280.042 184.724V185.367H211.909V184.724H280.042Z" fill="white"/>
<path d="M279.043 188.033C279.043 188.249 278.767 188.46 278.747 188.676H212.226C212.16 188.465 212.106 188.25 212.065 188.033H279.043Z" fill="white"/>
<path d="M216.237 148.785H62.1329L62.635 148.142H215.012C215.434 148.353 215.841 148.574 216.237 148.785Z" fill="white"/>
<path d="M214.852 152.089H60.3103C60.3906 151.873 60.476 151.662 60.5664 151.446H214.244C214.459 151.648 214.662 151.862 214.852 152.089Z" fill="white"/>
<path d="M216.559 155.433H59.6024C59.6073 155.219 59.6275 155.006 59.6626 154.795H216.398C216.466 155.003 216.52 155.217 216.559 155.433Z" fill="white"/>
<path d="M216.629 158.114H59.5672V158.751H216.629V158.114Z" fill="white"/>
<path d="M216.629 161.438H59.5672V162.075H216.629V161.438Z" fill="white"/>
<path d="M216.629 164.761H59.5672V165.404H216.629V164.761Z" fill="white"/>
<path d="M216.629 168.09H59.5672V168.728H216.629V168.09Z" fill="white"/>
<path d="M216.629 171.419H59.5672V172.052H216.629V171.419Z" fill="white"/>
<path d="M216.629 174.738H59.5672V175.37H216.629V174.738Z" fill="white"/>
<path d="M216.629 178.062H59.5672V178.699H216.629V178.062Z" fill="white"/>
<path d="M216.629 181.385H59.5672V182.028H216.629V181.385Z" fill="white"/>
<path d="M216.398 184.724C216.332 184.943 216.253 185.157 216.162 185.367H59.748C59.7128 185.156 59.6777 184.945 59.6526 184.724H216.398Z" fill="white"/>
<path d="M214.264 188.038C214.039 188.262 213.803 188.475 213.556 188.676H60.8576C60.7521 188.465 60.6517 188.249 60.5613 188.038H214.264Z" fill="white"/>
<path opacity="0.2" d="M222.107 137.026C219.842 139.748 216.915 142.484 215.755 143.091C209.158 146.566 201.516 149.227 197.645 155.603C192.745 163.637 195.913 174.145 193.664 183.293C193.252 184.96 192.614 186.662 191.324 187.812C190.034 188.962 187.96 189.353 186.589 188.314C185.384 187.405 185.083 185.759 184.857 184.267C182.878 170.191 182.804 155.912 184.636 141.816C177.105 145.18 172.009 152.28 167.987 159.459C163.966 166.639 160.592 174.336 154.988 180.366C153.397 182.073 151.303 183.745 148.993 183.414C146.217 179.899 147.673 174.763 149.249 170.555C152.408 162.08 155.576 153.595 159.663 145.562C160.978 142.951 162.439 140.33 164.648 138.412C165.253 137.888 165.905 137.423 166.596 137.021L222.107 137.026Z" fill="#3F3D56"/>
<path d="M276.969 191.362C276.799 191.588 276.608 191.763 276.417 191.999H63.2174C63.0165 191.793 62.8207 191.578 62.6349 191.362H276.969Z" fill="white"/>
<path d="M109.344 272.619H83.5819C75.3226 270.54 71.321 261.608 71.321 261.608C71.321 261.608 70.5729 217.927 71.321 212.404C72.0691 206.881 84.581 202.915 84.581 202.915H109.344C101.085 204.1 95.0846 212.153 95.0846 212.153C95.0846 212.153 94.5825 260.428 95.0846 263.677C95.5867 266.925 109.344 272.619 109.344 272.619Z" fill="url(#paint12_linear_199_7209)"/>
<path d="M109.344 272.619H101.085C92.8353 270.54 88.8337 261.608 88.8337 261.608C88.8337 261.608 88.0806 217.927 88.8337 212.404C89.5868 206.881 102.089 202.915 102.089 202.915H109.344C101.085 204.1 95.0846 212.153 95.0846 212.153C95.0846 212.153 94.5826 260.428 95.0846 263.677C95.5867 266.925 109.344 272.619 109.344 272.619Z" fill="#B9B4E4"/>
<path d="M109.344 272.619H101.085C92.8353 270.54 88.8337 261.608 88.8337 261.608C88.8337 261.608 88.0806 217.927 88.8337 212.404C89.5868 206.881 102.089 202.915 102.089 202.915H109.344C101.085 204.1 95.0846 212.153 95.0846 212.153C95.0846 212.153 94.5826 260.428 95.0846 263.677C95.5867 266.925 109.344 272.619 109.344 272.619Z" fill="url(#paint13_linear_199_7209)"/>
<path d="M145.223 168.557L142.823 172.724L148.396 175.149L150.7 171.183L145.223 168.557Z" fill="url(#paint14_linear_199_7209)"/>
<path d="M182.693 179.749L182.432 184.393L188.507 184.041L188.763 179.749H182.693Z" fill="url(#paint15_linear_199_7209)"/>
<path d="M143.917 171.8C143.796 171.547 143.625 171.32 143.415 171.133C143.169 170.968 142.886 170.865 142.592 170.831L132.947 168.893C132.599 168.808 132.241 168.769 131.882 168.778C130.959 168.838 130.2 169.516 129.593 170.214C129.245 170.544 129.022 170.984 128.96 171.459C128.995 171.758 129.092 172.046 129.244 172.305C129.396 172.564 129.6 172.789 129.844 172.965C130.522 173.594 131.234 174.184 131.978 174.733C133.407 175.735 134.894 176.652 136.431 177.479C137.466 178.061 138.5 178.644 139.559 179.176C141.301 180.05 143.109 180.783 144.926 181.496C145.046 181.57 145.191 181.594 145.328 181.562C145.466 181.53 145.585 181.445 145.66 181.325C146.974 179.954 148.011 178.341 148.712 176.575C148.888 176.138 149.214 175.179 148.712 174.818C148.536 174.692 148.039 174.713 147.818 174.662C147.011 174.468 146.249 174.116 145.579 173.626C144.908 173.135 144.342 172.517 143.912 171.805L143.917 171.8Z" fill="#3F3D56"/>
<path d="M183.05 182.284C182.817 182.128 182.556 182.017 182.282 181.958C181.986 181.942 181.691 181.993 181.418 182.108L172.109 185.286C171.757 185.384 171.419 185.53 171.105 185.718C170.337 186.22 170.021 187.225 169.845 188.113C169.709 188.572 169.739 189.065 169.93 189.504C170.109 189.742 170.335 189.94 170.595 190.086C170.854 190.232 171.14 190.323 171.437 190.352C172.337 190.558 173.249 190.709 174.168 190.804C175.906 190.955 177.651 191 179.395 190.94C180.584 190.94 181.769 190.91 182.954 190.834C184.902 190.714 186.835 190.438 188.758 190.142C188.898 190.147 189.034 190.098 189.137 190.004C189.241 189.91 189.303 189.779 189.311 189.64C189.757 187.792 189.844 185.876 189.567 183.996C189.496 183.529 189.281 182.545 188.673 182.49C188.457 182.465 188.04 182.736 187.825 182.801C187.497 182.902 187.161 182.972 186.82 183.012C185.518 183.172 184.199 182.917 183.05 182.284Z" fill="#3F3D56"/>
<path d="M220.736 119.654C220.736 119.654 219.16 134.41 205.558 137.026C196.35 138.788 185.088 138.161 178.782 137.573C177.291 137.436 175.791 137.713 174.447 138.375C173.104 139.037 171.97 140.058 171.17 141.324L151.589 172.513L145.916 169.772H145.87L143.862 168.808L160.165 130.745C161.122 128.382 162.593 126.26 164.47 124.534C166.347 122.808 168.584 121.52 171.02 120.764L189.753 114.965L194.131 113.609C194.131 113.609 211.668 111.842 220.736 119.654Z" fill="#3F3D56"/>
<path opacity="0.24" d="M189.788 114.935L191.018 117.54C191.018 117.54 169.428 123.867 166.777 126.944C163.237 131.062 145.936 169.747 145.936 169.747H145.89L143.882 168.783L160.165 130.745C161.122 128.382 162.593 126.26 164.47 124.534C166.347 122.808 168.584 121.52 171.02 120.764L189.788 114.935Z" fill="white"/>
<path d="M197.439 117.094C197.439 117.094 180.097 134.014 179.535 143.051C178.973 152.089 181.398 180.426 181.398 180.426H189.813C189.813 180.426 189.396 146.024 192.825 145.783C196.254 145.542 211.799 135.52 214.294 132.658C216.79 129.796 220.771 119.644 220.771 119.644L197.439 117.094Z" fill="#3F3D56"/>
<path d="M220.736 119.654C220.736 119.654 206.859 126.749 192.399 118.449C191.139 117.726 189.93 116.919 188.778 116.034C188.778 116.034 194.864 105.164 190.019 89.3735C187.945 82.6204 187.9 69.7269 198.167 67.8893H198.218C208.43 66.0768 207.853 68.5972 207.853 68.5972L212.472 73.0859C221.354 80.2908 222.328 91.3366 220.736 119.654Z" fill="#B9B4E4"/>
<path opacity="0.24" d="M198.218 67.8793C197.791 68.809 197.128 69.6105 196.295 70.2039C196.295 70.2039 190.189 72.9102 191.409 81.8623C192.629 90.8145 194.864 108.031 194.864 108.031L192.399 118.449C191.139 117.726 189.93 116.919 188.778 116.034C188.778 116.034 194.864 105.164 190.019 89.3735C187.945 82.6205 187.9 69.7269 198.167 67.8893L198.218 67.8793Z" fill="white"/>
<path d="M207.401 67.3069C206.862 67.9501 206.203 68.4811 205.459 68.8693C204.716 69.2576 203.903 69.4956 203.067 69.5697C202.232 69.6438 201.39 69.5526 200.59 69.3014C199.789 69.0501 199.047 68.6436 198.403 68.1052L198.182 67.9144C198.182 67.9144 190.651 75.4457 198.263 76.3544C202.28 76.8565 207.225 71.9963 208.656 69.2499L207.401 67.3069Z" fill="#3F3D56"/>
<path d="M209.66 60.2526C209.63 60.353 208.214 64.686 207.15 67.7838C206.36 70.1985 204.684 72.2241 202.46 73.4524C201.155 74.2405 199.703 74.7531 198.193 74.9586C197.935 74.9821 197.675 74.9546 197.429 74.8777C197.182 74.8008 196.952 74.6761 196.754 74.5106C196.555 74.345 196.391 74.142 196.271 73.913C196.151 73.6841 196.077 73.4337 196.054 73.1762C196.015 72.7646 196.108 72.3513 196.32 71.9963C196.671 71.3787 197.053 70.6658 197.404 69.9076C198.137 68.3311 198.75 66.5788 198.649 65.1931V65.0424C198.559 64.3194 199.031 63.6818 199.824 63.1245C200.944 62.3463 202.706 61.7337 204.428 61.2718C206.152 60.8342 207.899 60.4939 209.66 60.2526Z" fill="url(#paint16_linear_199_7209)"/>
<path d="M198.499 69.8474C198.154 69.9176 197.801 69.9429 197.449 69.9227C198.183 68.3462 198.795 66.5939 198.695 65.2082L199.859 63.1396L200.728 61.6032L204.464 61.2869L208.239 60.9706C205.749 66.86 201.567 69.3002 198.499 69.8474Z" fill="url(#paint17_linear_199_7209)"/>
<path d="M205.513 40.4403C202.885 39.8906 200.146 40.4068 197.899 41.8756C195.652 43.3443 194.08 45.6453 193.528 48.2728C193.478 48.5289 193.433 48.7749 193.398 49.0511C192.626 53.1088 192.593 57.2728 193.302 61.3421C195.024 67.6432 204.278 65.3587 206.156 63.4458C208.033 61.5329 215.58 52.7163 214.345 49.287C213.556 46.9574 210.795 41.6303 205.513 40.4403Z" fill="url(#paint18_linear_199_7209)"/>
<path d="M198.057 34.2948L199.483 35.6053C198.503 35.316 197.468 35.2639 196.464 35.4533C195.46 35.6428 194.516 36.0683 193.709 36.6948C191.796 37.7923 190.389 39.5943 189.788 41.7156L192.956 41.1483C192.956 41.1483 191.801 44.5574 197.053 46.2595C202.305 47.9615 207.863 49.7138 207.863 49.7138L206.738 46.7013C206.738 46.7013 209.685 48.9205 209.931 50.3063C209.922 52.4079 209.754 54.5059 209.429 56.5823C209.429 56.5823 211.679 53.5196 212.02 54.4133C212.361 55.307 210.403 58.1036 209.51 58.6007C208.616 59.0978 208.194 61.1613 208.084 61.3119C207.973 61.4626 212.1 59.5848 212.507 58.6609C212.914 57.7371 218.909 48.9456 217.262 46.3147L218.612 46.5708C217.97 45.8318 217.17 45.2453 216.273 44.8536C216.273 44.8536 210.664 31.0865 198.057 34.2948Z" fill="#3F3D56"/>
<path d="M196.069 108.432C195.311 107.674 194.562 106.771 193.503 106.59C193.132 107.474 193.89 108.382 194.211 109.281C194.261 109.381 194.286 109.491 194.286 109.602C194.286 109.714 194.261 109.824 194.211 109.924C194.06 110.165 193.709 110.18 193.433 110.16C192.093 110.064 190.779 109.749 189.542 109.226C188.397 108.724 187.297 108.076 186.057 107.95C185.925 107.924 185.787 107.942 185.666 108.001C185.364 108.191 185.54 108.653 185.756 108.935C186.217 109.542 186.74 110.099 187.317 110.596C186.443 110.209 185.509 109.97 184.556 109.889C184.29 109.889 183.928 109.944 183.933 110.21C183.951 110.319 184.004 110.42 184.084 110.496C184.79 111.304 185.641 111.972 186.594 112.464C185.902 112.318 185.193 112.259 184.486 112.288C184.179 112.288 183.773 112.449 183.818 112.75C183.837 112.85 183.886 112.941 183.958 113.011C184.808 114.037 185.956 114.772 187.242 115.115L185.234 115.16C185.107 115.155 184.981 115.181 184.867 115.236C184.506 115.467 184.822 116.034 185.174 116.28C186.72 117.36 188.688 117.55 190.581 117.686C194.201 117.947 198.012 118.088 201.275 116.491C201.511 116.37 201.777 116.21 201.823 115.949C201.833 115.812 201.812 115.675 201.762 115.547C201.366 114.227 201.165 111.832 199.965 111.028C199.382 110.642 198.665 110.421 198.067 110.024C197.47 109.627 196.752 108.774 196.069 108.432Z" fill="url(#paint19_linear_199_7209)"/>
<path d="M223.683 105.631C222.549 116.782 202.34 118.148 202.34 118.148L200.256 110.983L199.89 109.723C199.89 109.723 210.715 108.357 212.783 104.968C214.852 101.579 206.336 90.2169 211.483 83.8806C216.629 77.5443 217.799 79.4924 217.799 79.4924C217.799 79.4924 224.808 94.4796 223.683 105.631Z" fill="#B9B4E4"/>
<path d="M169.398 88.9617C169.392 89.3113 169.364 89.6601 169.313 90.006C169.142 91.5675 168.655 94.4243 167.36 95.4637C165.537 96.9247 165.286 94.7959 165.326 93.9574C165.366 93.497 165.441 93.0404 165.552 92.5917C165.974 90.7742 168.208 89.529 169.067 89.1173L169.398 88.9617Z" fill="url(#paint20_linear_199_7209)"/>
<path d="M169.313 90.006C169.142 91.5675 168.655 94.4244 167.36 95.4637C166.797 95.057 166.074 94.5147 165.326 93.9574C164.322 93.2043 163.253 92.411 162.494 91.8587C161.82 91.4065 161.206 90.8699 160.667 90.2621C160.194 89.6451 159.803 88.9701 159.502 88.2537L157.946 84.8697C157.443 83.7601 156.941 82.294 157.835 81.4354C158.061 81.2145 160.12 80.8129 160.255 80.5217C160.632 79.6882 158.247 77.9259 158.397 77.0071C158.472 76.7568 158.632 76.5406 158.849 76.3957C159.067 76.2508 159.328 76.1865 159.587 76.2138C160.089 76.2389 161.515 77.5493 161.962 77.8154C162.846 78.3175 162.103 79.0305 162.966 79.5526C164.087 80.1284 165.105 80.885 165.979 81.7919C166.953 82.9317 167.445 84.3927 167.912 85.8086C168.253 86.8479 168.71 87.9726 169.062 89.0922C169.157 89.4136 169.242 89.7098 169.313 90.006Z" fill="url(#paint21_linear_199_7209)"/>
<path d="M161.927 82.0028L158.578 66.1219L157.338 60.2526L176.799 65.4692L182.447 103.462L164.362 97.949L161.927 82.0028Z" fill="#B9B4E4"/>
<path d="M165.979 81.8121L158.277 64.701L164.362 97.949L182.447 103.462L180.509 90.4328L165.979 81.8121Z" fill="url(#paint22_linear_199_7209)"/>
<path d="M163.037 88.8513C163.649 88.545 164.904 87.9877 165.221 87.3802C165.296 87.2346 165.406 87.0438 165.311 86.9132C164.874 86.3107 163.077 87.0789 162.565 86.9132C162.916 86.3358 166.049 84.5836 164.573 84.1869C164.257 84.1016 162.294 85.0957 161.977 85.0053C162.223 84.8045 164.242 83.3685 164.588 82.997C164.688 82.8863 164.748 82.7449 164.757 82.596C164.766 82.4471 164.724 82.2996 164.638 82.1776C164.552 82.0555 164.428 81.9663 164.284 81.9245C164.141 81.8828 163.988 81.8909 163.85 81.9476C162.781 82.4387 161.685 82.8678 160.566 83.233C160.782 82.8765 163.699 81.2246 163.815 80.8029C163.88 80.6434 163.89 80.4669 163.845 80.3008C163.805 80.2114 163.746 80.1316 163.672 80.0667C163.598 80.0017 163.512 79.9532 163.418 79.9242C162.605 79.6079 161.691 79.9242 160.878 80.2506L158.95 81.0137C158.332 81.2547 157.649 81.566 157.443 82.1886C157.353 82.5037 157.338 82.8355 157.398 83.1576C157.633 85.1905 158.359 87.1358 159.512 88.8262C160.084 89.6596 161.892 91.673 162.931 91.8688C163.855 92.0445 162.173 89.3283 163.037 88.8513Z" fill="url(#paint23_linear_199_7209)"/>
<path opacity="0.24" d="M183.17 140.32C183.17 140.32 189.808 125.112 197.48 120.784L194.864 119.724C194.864 119.724 181.393 134.049 179.801 141.419C178.21 148.79 181.403 180.416 181.403 180.416H183.612C183.612 180.416 179.962 143.423 183.17 140.32Z" fill="white"/>
<path opacity="0.24" d="M213.345 107.403C209.073 109.161 201.798 110.692 200.231 111.013L199.93 111.073L199.865 109.753C199.865 109.753 210.689 108.387 212.758 104.998C214.827 101.609 206.311 90.2471 211.458 83.9108C211.458 83.9108 210.805 89.514 212.497 93.6562C214.189 97.7984 218.145 105.395 213.345 107.403Z" fill="white"/>
<defs>
<linearGradient id="paint0_linear_199_7209" x1="351.067" y1="52.0435" x2="382.251" y2="99.5657" gradientUnits="userSpaceOnUse">
<stop stop-color="white" stop-opacity="0"/>
<stop offset="0.99" stop-color="white"/>
</linearGradient>
<linearGradient id="paint1_linear_199_7209" x1="176.568" y1="174.206" x2="177.456" y2="93.7516" gradientUnits="userSpaceOnUse">
<stop stop-color="white" stop-opacity="0"/>
<stop offset="0.99" stop-color="white"/>
</linearGradient>
<linearGradient id="paint2_linear_199_7209" x1="206.999" y1="108.643" x2="165.206" y2="209.176" gradientUnits="userSpaceOnUse">
<stop offset="0.17" stop-color="#00272E"/>
<stop offset="1" stop-color="#69B9EB" stop-opacity="0"/>
</linearGradient>
<linearGradient id="paint3_linear_199_7209" x1="146.458" y1="249.613" x2="148.15" y2="308.563" gradientUnits="userSpaceOnUse">
<stop stop-opacity="0"/>
<stop offset="0.91" stop-opacity="0.8"/>
<stop offset="1"/>
</linearGradient>
<linearGradient id="paint4_linear_199_7209" x1="148.326" y1="196.383" x2="145.66" y2="229.721" gradientUnits="userSpaceOnUse">
<stop stop-color="white" stop-opacity="0"/>
<stop offset="0.99" stop-color="white"/>
</linearGradient>
<linearGradient id="paint5_linear_199_7209" x1="256.515" y1="237.523" x2="156.008" y2="233.707" gradientUnits="userSpaceOnUse">
<stop stop-opacity="0"/>
<stop offset="0.91" stop-opacity="0.8"/>
<stop offset="1"/>
</linearGradient>
<linearGradient id="paint6_linear_199_7209" x1="275.649" y1="290.99" x2="292.901" y2="109.191" gradientUnits="userSpaceOnUse">
<stop stop-color="white" stop-opacity="0"/>
<stop offset="0.99" stop-color="white"/>
</linearGradient>
<linearGradient id="paint7_linear_199_7209" x1="280.926" y1="173.081" x2="210.79" y2="167.302" gradientUnits="userSpaceOnUse">
<stop stop-color="#68E1FD"/>
<stop offset="1" stop-color="white"/>
</linearGradient>
<linearGradient id="paint8_linear_199_7209" x1="214.319" y1="170.184" x2="27.9158" y2="170.184" gradientUnits="userSpaceOnUse">
<stop stop-color="white" stop-opacity="0"/>
<stop offset="0.99" stop-color="white"/>
</linearGradient>
<linearGradient id="paint9_linear_199_7209" x1="275.072" y1="197.482" x2="276.382" y2="197.482" gradientUnits="userSpaceOnUse">
<stop stop-color="#68E1FD"/>
<stop offset="1" stop-color="#69B9EB"/>
</linearGradient>
<linearGradient id="paint10_linear_199_7209" x1="276.995" y1="149.197" x2="277.698" y2="149.197" gradientUnits="userSpaceOnUse">
<stop stop-color="#68E1FD"/>
<stop offset="1" stop-color="#69B9EB"/>
</linearGradient>
<linearGradient id="paint11_linear_199_7209" x1="279.169" y1="152.997" x2="279.4" y2="152.997" gradientUnits="userSpaceOnUse">
<stop stop-color="#68E1FD"/>
<stop offset="1" stop-color="#69B9EB"/>
</linearGradient>
<linearGradient id="paint12_linear_199_7209" x1="83.0095" y1="287.204" x2="100.266" y2="181.907" gradientUnits="userSpaceOnUse">
<stop stop-color="white" stop-opacity="0"/>
<stop offset="0.99" stop-color="white"/>
</linearGradient>
<linearGradient id="paint13_linear_199_7209" x1="98.2377" y1="317.159" x2="101.351" y2="3.60751" gradientUnits="userSpaceOnUse">
<stop stop-color="white" stop-opacity="0"/>
<stop offset="0.99" stop-color="white"/>
</linearGradient>
<linearGradient id="paint14_linear_199_7209" x1="151.569" y1="172.247" x2="139.981" y2="171.288" gradientUnits="userSpaceOnUse">
<stop stop-color="#ECC4D7"/>
<stop offset="0.42" stop-color="#EFD4D1"/>
<stop offset="1" stop-color="#F2EAC9"/>
</linearGradient>
<linearGradient id="paint15_linear_199_7209" x1="189.988" y1="179.312" x2="179.375" y2="183.625" gradientUnits="userSpaceOnUse">
<stop stop-color="#ECC4D7"/>
<stop offset="0.42" stop-color="#EFD4D1"/>
<stop offset="1" stop-color="#F2EAC9"/>
</linearGradient>
<linearGradient id="paint16_linear_199_7209" x1="208.475" y1="67.6633" x2="200.276" y2="67.5679" gradientUnits="userSpaceOnUse">
<stop stop-color="#ECC4D7"/>
<stop offset="0.42" stop-color="#EFD4D1"/>
<stop offset="1" stop-color="#F2EAC9"/>
</linearGradient>
<linearGradient id="paint17_linear_199_7209" x1="203.525" y1="64.204" x2="181.192" y2="73.608" gradientUnits="userSpaceOnUse">
<stop stop-color="#ECC4D7"/>
<stop offset="0.42" stop-color="#EFD4D1"/>
<stop offset="1" stop-color="#F2EAC9"/>
</linearGradient>
<linearGradient id="paint18_linear_199_7209" x1="213.526" y1="51.3857" x2="195.009" y2="53.6501" gradientUnits="userSpaceOnUse">
<stop stop-color="#ECC4D7"/>
<stop offset="0.42" stop-color="#EFD4D1"/>
<stop offset="1" stop-color="#F2EAC9"/>
</linearGradient>
<linearGradient id="paint19_linear_199_7209" x1="183.793" y1="112.218" x2="201.803" y2="112.218" gradientUnits="userSpaceOnUse">
<stop stop-color="#ECC4D7"/>
<stop offset="0.42" stop-color="#EFD4D1"/>
<stop offset="1" stop-color="#F2EAC9"/>
</linearGradient>
<linearGradient id="paint20_linear_199_7209" x1="165.321" y1="92.4612" x2="169.398" y2="92.4612" gradientUnits="userSpaceOnUse">
<stop stop-color="#183866"/>
<stop offset="1" stop-color="#1A7FC1"/>
</linearGradient>
<linearGradient id="paint21_linear_199_7209" x1="157.343" y1="85.8337" x2="169.313" y2="85.8337" gradientUnits="userSpaceOnUse">
<stop stop-color="#ECC4D7"/>
<stop offset="0.42" stop-color="#EFD4D1"/>
<stop offset="1" stop-color="#F2EAC9"/>
</linearGradient>
<linearGradient id="paint22_linear_199_7209" x1="164.227" y1="74.336" x2="188.447" y2="132.904" gradientUnits="userSpaceOnUse">
<stop stop-color="white" stop-opacity="0"/>
<stop offset="0.99" stop-color="white"/>
</linearGradient>
<linearGradient id="paint23_linear_199_7209" x1="157.338" y1="85.8338" x2="165.351" y2="85.8338" gradientUnits="userSpaceOnUse">
<stop stop-color="#ECC4D7"/>
<stop offset="0.42" stop-color="#EFD4D1"/>
<stop offset="1" stop-color="#F2EAC9"/>
</linearGradient>
</defs>
</svg>
