<svg width="406" height="306" viewBox="0 0 406 306" fill="none" xmlns="http://www.w3.org/2000/svg">
<path d="M105.286 109.467C105.286 109.467 125.068 99.3167 147.398 107.021C169.728 114.724 126.347 127.321 126.347 127.321L105.286 109.467Z" fill="#B9B4E4"/>
<path opacity="0.08" d="M105.286 109.467C105.286 109.467 125.068 99.3167 147.398 107.021C169.728 114.724 126.347 127.321 126.347 127.321L105.286 109.467Z" fill="black"/>
<path d="M81.2 116.785C81.2 116.785 67.6294 124.58 64.2495 143.865C60.8695 163.15 107.214 189.205 107.214 189.205L136.01 167.596C136.01 167.596 153.113 92.2624 92.9638 112.481L81.2 116.785Z" fill="#B9B4E4"/>
<path opacity="0.45" d="M210.755 282.078C289.453 282.078 353.25 272.907 353.25 261.595C353.25 250.283 289.453 241.112 210.755 241.112C132.056 241.112 68.2588 250.283 68.2588 261.595C68.2588 272.907 132.056 282.078 210.755 282.078Z" fill="#E6E6E6"/>
<path d="M289.894 73.5966H126.357V261.595H289.894V73.5966Z" fill="#E6E6E6"/>
<path d="M270.812 180.151H247.965V201.253H270.812V180.151Z" fill="#24285B"/>
<path d="M270.812 211.362H247.965V232.464H270.812V211.362Z" fill="#A5A5A5"/>
<path opacity="0.08" d="M254.298 195.041C254.298 195.041 212.683 201.953 232.181 261.595H276.719L254.298 195.041Z" fill="black"/>
<path d="M107.225 189.205L126.804 215.25L126.357 174.823L107.225 189.205Z" fill="#24285B"/>
<path d="M292.787 59.9346H123.668V107.02H292.787V59.9346Z" fill="#B9B4E4"/>
<path d="M280.444 261.605C301.662 261.605 318.862 244.405 318.862 223.187C318.862 201.97 301.662 184.77 280.444 184.77C259.227 184.77 242.027 201.97 242.027 223.187C242.027 244.405 259.227 261.605 280.444 261.605Z" fill="#B9B4E4"/>
<path d="M268.934 222.71L277.197 236.93L294.431 211.17" stroke="white" stroke-width="10.15" stroke-linecap="round" stroke-linejoin="round"/>
<path d="M169.901 42.4462H156.34V83.4827H169.901V42.4462Z" fill="#F2F2F2"/>
<path opacity="0.08" d="M178.853 59.62H169.901V83.4725H178.853V59.62Z" fill="black"/>
<path opacity="0.08" d="M268.336 59.62H259.383V83.4725H268.336V59.62Z" fill="black"/>
<path d="M259.383 42.4462H245.823V83.4827H259.383V42.4462Z" fill="#F2F2F2"/>
<path d="M185.755 125.778H148.637V137.004H185.755V125.778Z" fill="#24285B"/>
<path d="M172.591 149.133H149.743V170.235H172.591V149.133Z" fill="white"/>
<path opacity="0.32" d="M205.751 149.133H182.903V170.235H205.751V149.133Z" fill="#A5A5A5"/>
<path d="M238.566 149.133H215.718V170.235H238.566V149.133Z" fill="#B9B4E4"/>
<path d="M270.812 149.133H247.965V170.235H270.812V149.133Z" fill="#24285B"/>
<path d="M80.5605 117.181C80.5605 117.181 79.982 124.58 86.752 128.132C93.5221 131.685 92.842 122.662 92.842 122.662C92.842 122.662 95.3085 125.321 99.2264 121.819C103.144 118.317 93.9382 111.903 93.9382 111.903L80.5605 117.181Z" fill="white"/>
<path d="M172.591 180.151H149.743V201.253H172.591V180.151Z" fill="white"/>
<path opacity="0.32" d="M205.751 180.151H182.903V201.253H205.751V180.151Z" fill="#A5A5A5"/>
<path opacity="0.32" d="M238.566 180.151H215.718V201.253H238.566V180.151Z" fill="#A5A5A5"/>
<path d="M172.591 211.362H149.743V232.464H172.591V211.362Z" fill="white"/>
<path opacity="0.32" d="M205.751 211.362H182.903V232.464H205.751V211.362Z" fill="#A5A5A5"/>
<path opacity="0.32" d="M238.566 211.362H215.718V232.464H238.566V211.362Z" fill="#A5A5A5"/>
<path d="M91.1064 109.01C91.6146 110.555 92.211 112.07 92.8928 113.547C93.8469 115.577 94.73 118.845 91.8778 121.027C87.5133 124.397 82.3064 117.424 82.3064 117.424C82.3064 117.424 75.5972 111.832 80.2764 108.157C84.58 104.859 88.7009 101.945 91.1064 109.01Z" fill="#F4A28C"/>
<path d="M74.9882 107.325C74.0685 108.337 73.5552 109.652 73.5469 111.02C73.5008 111.715 73.6599 112.409 74.0045 113.016C74.3492 113.622 74.8641 114.114 75.4855 114.43C78.6523 115.922 82.3165 117.475 82.3165 117.475C82.3165 117.475 78.7132 114.237 82.3165 112.847C85.9197 111.456 89.9493 112.654 91.1064 109.061C92.2635 105.468 93.1364 103.427 91.1064 101.184C89.0764 98.9411 87.97 95.5916 84.6205 98.5757C81.271 101.56 81.5755 97.9464 78.6422 96.8604C75.7088 95.7743 72.1665 97.4592 73.5672 100.068C74.7446 102.301 76.7543 105.204 74.9882 107.325Z" fill="#24285B"/>
<path d="M86.7419 139.988C84.5191 130.244 71.385 128.264 66.0258 136.699C59.3166 147.286 50.75 164.652 53.795 181.085C58.5249 207.13 78.8756 230.14 126.388 215.25V207.475C126.388 207.475 109.64 211.058 95.1258 205.536C80.6113 200.015 74.0138 182.719 80.8346 168.601C84.7525 160.43 88.8125 149.082 86.7419 139.988Z" fill="#B9B4E4"/>
<path opacity="0.2" d="M86.7419 139.988C84.5191 130.244 71.385 128.264 66.0258 136.699C59.3166 147.286 50.75 164.652 53.795 181.085C58.5249 207.13 78.8756 230.14 126.388 215.25V207.475C126.388 207.475 109.64 211.058 95.1258 205.536C80.6113 200.015 74.0138 182.719 80.8346 168.601C84.7525 160.43 88.8125 149.082 86.7419 139.988Z" fill="white"/>
<path d="M126.357 215.25C126.357 215.25 119.252 210.855 123.668 204.258C128.083 197.66 137.025 206.46 126.357 215.25Z" fill="#F4A28C"/>
<path opacity="0.32" d="M289.894 107.021H126.357V116.785H289.894V107.021Z" fill="#A5A5A5"/>
<path d="M82.7732 117.577C82.7732 117.577 81.3116 115.404 79.3425 116.562C77.3734 117.719 80.388 121.596 82.7732 117.577Z" fill="#F4A28C"/>
<path d="M92.1823 113.983C92.1823 113.983 90.335 112.116 91.8271 110.37C93.3191 108.624 96.5976 112.4 92.1823 113.983Z" fill="#F4A28C"/>
<path d="M188.079 59.9347C188.079 59.9347 193.489 51.8147 199.579 55.8747C205.669 59.9347 200.259 65.3142 188.079 59.9347Z" fill="#F4A28C"/>
<path opacity="0.08" d="M105.286 109.467C105.286 109.467 132.894 152.827 94.6183 181.247L107.214 189.205L126.357 174.822V113.415C126.357 113.415 119.323 107.325 105.286 109.467Z" fill="black"/>
</svg>
