<svg width="406" height="306" viewBox="0 0 406 306" fill="none" xmlns="http://www.w3.org/2000/svg">
<path d="M175.554 62.056V155.984H132.498V62.056" fill="#827EAC"/>
<path d="M175.595 156.999H132.498C132.229 156.999 131.971 156.892 131.78 156.702C131.59 156.511 131.483 156.253 131.483 155.984V62.056C131.483 61.7868 131.59 61.5287 131.78 61.3383C131.971 61.148 132.229 61.041 132.498 61.041C132.767 61.041 133.025 61.148 133.216 61.3383C133.406 61.5287 133.513 61.7868 133.513 62.056V154.969H174.58V62.056C174.58 61.7868 174.687 61.5287 174.877 61.3383C175.068 61.148 175.326 61.041 175.595 61.041C175.864 61.041 176.122 61.148 176.313 61.3383C176.503 61.5287 176.61 61.7868 176.61 62.056V155.984C176.61 156.253 176.503 156.511 176.313 156.702C176.122 156.892 175.864 156.999 175.595 156.999Z" fill="#093F68"/>
<path d="M142.262 147.377C143.709 147.377 144.881 146.204 144.881 144.758C144.881 143.312 143.709 142.14 142.262 142.14C140.816 142.14 139.644 143.312 139.644 144.758C139.644 146.204 140.816 147.377 142.262 147.377Z" fill="#093F68"/>
<path d="M201.64 119.505C201.64 119.505 190.708 120.327 185.826 121.139C180.944 121.951 173.646 132.538 163.303 133.624C152.96 134.71 144.577 134.974 141.592 132.264C138.608 129.554 139.694 124.144 139.694 124.144H127.393C120.156 124.144 119.608 116.206 124.348 113.852C124.348 113.852 116.228 112.735 115.527 107.031C114.705 100.565 122.531 100.159 122.531 100.159C121.219 98.3875 120.579 96.2078 120.724 94.0083C121.089 90.5674 127.423 88.2228 127.423 88.2228C127.423 88.2228 123.8 85.868 126.337 81.3411C128.875 76.8142 130.499 77.545 139.725 77.545C148.951 77.545 158.178 76.8243 163.07 78.631C167.962 80.4377 182.974 86.954 187.136 87.1367C191.297 87.3194 201.68 86.7713 201.68 86.7713L201.64 119.505Z" fill="#FFC9B0"/>
<path d="M151.397 135.42C146.454 135.42 142.841 134.771 140.912 133.015C138.436 130.761 138.375 127.057 138.537 125.148H127.372C123.079 125.148 120.958 122.631 120.409 120.287C120.169 119.244 120.186 118.159 120.458 117.125C120.73 116.09 121.25 115.138 121.973 114.349C119.293 113.547 115.03 111.588 114.462 107.152C114.304 106.261 114.342 105.345 114.571 104.47C114.801 103.594 115.217 102.778 115.791 102.077C117.119 100.66 118.872 99.7126 120.785 99.3776C119.879 97.7009 119.484 95.7954 119.648 93.8965C119.953 90.9632 123.465 88.8216 125.545 87.8776C124.398 86.416 123.627 83.9597 125.373 80.8437C127.87 76.398 130.001 76.4183 136.345 76.4995H139.654C141.745 76.4995 143.836 76.4995 145.886 76.4284C152.829 76.3066 159.396 76.1848 163.344 77.6464C164.542 78.093 166.338 78.8137 168.419 79.6764C174.661 82.1835 184.111 85.9796 187.085 86.1115C191.145 86.2841 201.427 85.7563 201.528 85.7461C201.668 85.7385 201.808 85.7598 201.939 85.8087C202.07 85.8576 202.189 85.933 202.29 86.0303C202.388 86.1246 202.467 86.238 202.521 86.3636C202.575 86.4892 202.604 86.6244 202.604 86.7611V119.505C202.605 119.762 202.508 120.01 202.332 120.199C202.157 120.387 201.917 120.502 201.66 120.52C201.549 120.52 190.729 121.342 185.948 122.144C184.263 122.418 182.02 124.225 179.411 126.306C175.169 129.706 169.881 133.948 163.354 134.628C159.384 135.092 155.394 135.356 151.397 135.42ZM134.142 78.5092C129.798 78.5092 128.844 78.8847 127.2 81.8282C125.17 85.3807 127.677 87.1671 127.961 87.36C128.126 87.4676 128.256 87.6209 128.335 87.8011C128.415 87.9813 128.44 88.1807 128.408 88.375C128.386 88.5599 128.314 88.7354 128.2 88.8822C128.085 89.029 127.932 89.1415 127.758 89.2073C126.266 89.7655 121.952 91.8666 121.668 94.1605C121.547 96.0951 122.111 98.0106 123.262 99.5704C123.377 99.7163 123.451 99.8912 123.474 100.076C123.497 100.261 123.468 100.448 123.392 100.618C123.315 100.788 123.194 100.933 123.04 101.039C122.886 101.144 122.707 101.205 122.521 101.215C122.521 101.215 119.009 101.438 117.324 103.458C116.938 103.944 116.662 104.508 116.513 105.11C116.364 105.712 116.347 106.34 116.461 106.949C117.08 111.821 124.338 112.877 124.409 112.887C124.624 112.917 124.823 113.015 124.979 113.166C125.134 113.318 125.236 113.515 125.271 113.73C125.294 113.934 125.253 114.141 125.155 114.323C125.058 114.504 124.907 114.651 124.723 114.745C123.822 115.208 123.1 115.958 122.672 116.877C122.244 117.796 122.133 118.831 122.358 119.82C122.845 121.85 124.713 123.118 127.352 123.118H139.654C139.805 123.116 139.955 123.147 140.093 123.209C140.23 123.272 140.352 123.364 140.449 123.48C140.547 123.596 140.617 123.732 140.655 123.878C140.693 124.025 140.698 124.178 140.669 124.326C140.669 124.326 139.735 129.229 142.252 131.512C145.135 134.131 154.95 133.482 163.171 132.609C169.099 131.99 174.133 127.96 178.173 124.722C181.005 122.459 183.441 120.5 185.644 120.134C189.703 119.454 197.824 118.784 200.605 118.571V87.8269C197.834 87.9588 190.455 88.2836 187.034 88.1415C183.614 87.9994 174.448 84.2744 167.688 81.5542C165.658 80.7219 163.831 80.0114 162.613 79.5242C159.02 78.1945 152.646 78.3062 145.896 78.428C143.866 78.428 141.735 78.499 139.634 78.499H136.294L134.142 78.5092Z" fill="#093F68"/>
<path d="M154.168 125.148H139.694C139.425 125.148 139.167 125.041 138.977 124.851C138.786 124.661 138.679 124.403 138.679 124.133C138.679 123.864 138.786 123.606 138.977 123.416C139.167 123.225 139.425 123.118 139.694 123.118H154.168C154.438 123.118 154.696 123.225 154.886 123.416C155.076 123.606 155.183 123.864 155.183 124.133C155.183 124.403 155.076 124.661 154.886 124.851C154.696 125.041 154.438 125.148 154.168 125.148Z" fill="#093F68"/>
<path d="M145.663 114.856H124.348C124.078 114.856 123.82 114.749 123.63 114.559C123.44 114.369 123.333 114.11 123.333 113.841C123.333 113.572 123.44 113.314 123.63 113.124C123.82 112.933 124.078 112.826 124.348 112.826H145.663C145.932 112.826 146.19 112.933 146.38 113.124C146.571 113.314 146.678 113.572 146.678 113.841C146.678 114.11 146.571 114.369 146.38 114.559C146.19 114.749 145.932 114.856 145.663 114.856Z" fill="#093F68"/>
<path d="M146.16 101.164H122.5C122.231 101.164 121.973 101.057 121.783 100.867C121.592 100.676 121.485 100.418 121.485 100.149C121.485 99.8797 121.592 99.6215 121.783 99.4312C121.973 99.2408 122.231 99.1339 122.5 99.1339H146.16C146.429 99.1339 146.687 99.2408 146.878 99.4312C147.068 99.6215 147.175 99.8797 147.175 100.149C147.175 100.418 147.068 100.676 146.878 100.867C146.687 101.057 146.429 101.164 146.16 101.164Z" fill="#093F68"/>
<path d="M144.577 89.2275H127.393C127.123 89.2275 126.865 89.1206 126.675 88.9302C126.485 88.7399 126.378 88.4817 126.378 88.2125C126.378 87.9433 126.485 87.6851 126.675 87.4948C126.865 87.3044 127.123 87.1975 127.393 87.1975H144.577C144.846 87.1975 145.104 87.3044 145.294 87.4948C145.485 87.6851 145.592 87.9433 145.592 88.2125C145.592 88.4817 145.485 88.7399 145.294 88.9302C145.104 89.1206 144.846 89.2275 144.577 89.2275Z" fill="#093F68"/>
<path d="M201.295 121.606V83.6146H191.997V121.606H201.295Z" fill="white"/>
<path d="M201.295 122.611H191.997C191.728 122.611 191.47 122.504 191.28 122.314C191.089 122.123 190.982 121.865 190.982 121.596V83.6045C190.982 83.3353 191.089 83.0771 191.28 82.8868C191.47 82.6964 191.728 82.5895 191.997 82.5895H201.295C201.564 82.5895 201.822 82.6964 202.013 82.8868C202.203 83.0771 202.31 83.3353 202.31 83.6045V121.596C202.31 121.865 202.203 122.123 202.013 122.314C201.822 122.504 201.564 122.611 201.295 122.611ZM193.012 120.581H200.28V84.6195H193.012V120.581Z" fill="#093F68"/>
<path d="M295.213 124.133H201.295V81.0771H295.213" fill="#B9B4E4"/>
<path d="M295.213 125.148H201.295C201.026 125.148 200.767 125.041 200.577 124.851C200.387 124.661 200.28 124.403 200.28 124.133V81.0771C200.28 80.8079 200.387 80.5498 200.577 80.3594C200.767 80.1691 201.026 80.0621 201.295 80.0621H295.213C295.482 80.0621 295.74 80.1691 295.93 80.3594C296.121 80.5498 296.228 80.8079 296.228 81.0771C296.228 81.3463 296.121 81.6045 295.93 81.7948C295.74 81.9852 295.482 82.0921 295.213 82.0921H202.31V123.118H295.213C295.482 123.118 295.74 123.225 295.93 123.416C296.121 123.606 296.228 123.864 296.228 124.133C296.228 124.403 296.121 124.661 295.93 124.851C295.74 125.041 295.482 125.148 295.213 125.148Z" fill="#093F68"/>
<path d="M212.511 93.4499C213.957 93.4499 215.129 92.2775 215.129 90.8312C215.129 89.385 213.957 88.2125 212.511 88.2125C211.064 88.2125 209.892 89.385 209.892 90.8312C209.892 92.2775 211.064 93.4499 212.511 93.4499Z" fill="#093F68"/>
<path d="M271.441 150.361C271.441 150.361 272.264 139.44 273.076 134.547C273.888 129.655 284.474 122.367 285.56 112.024C286.646 101.682 286.91 93.2977 284.2 90.3136C281.49 87.3295 276.08 88.4156 276.08 88.4156V76.1138C276.08 68.8768 268.143 68.3389 265.788 73.0688C265.788 73.0688 264.671 64.9488 258.967 64.2484C252.502 63.4263 252.096 71.2621 252.096 71.2621C250.326 69.9456 248.145 69.3049 245.945 69.4554C242.504 69.8106 240.159 76.1442 240.159 76.1442C240.159 76.1442 237.804 72.5308 233.277 75.0582C228.751 77.5855 229.481 79.2197 229.481 88.446C229.481 97.6724 228.761 106.899 230.567 111.791C232.374 116.683 238.89 131.685 239.073 135.847C239.256 140.008 238.708 150.391 238.708 150.391L271.441 150.361Z" fill="#AD7972"/>
<path d="M271.441 151.376H238.698C238.561 151.375 238.426 151.347 238.3 151.293C238.174 151.239 238.061 151.16 237.967 151.061C237.871 150.962 237.796 150.844 237.747 150.715C237.698 150.586 237.676 150.448 237.683 150.31C237.683 150.209 238.22 139.927 238.048 135.867C237.916 132.883 234.12 123.433 231.603 117.181C230.77 115.151 230.05 113.303 229.573 112.106C228.111 108.157 228.223 101.59 228.355 94.6477C228.355 92.6177 228.426 90.5065 228.426 88.4156C228.426 87.1874 228.426 86.0912 228.426 85.1066C228.345 78.7629 228.324 76.6314 232.76 74.1446C235.886 72.3887 238.342 73.1297 239.804 74.3071C240.819 72.2771 242.849 68.7144 245.823 68.4099C247.722 68.2452 249.627 68.6404 251.304 69.5467C251.643 67.6247 252.598 65.8649 254.024 64.5326C254.726 63.9625 255.543 63.5496 256.418 63.322C257.294 63.0944 258.208 63.0572 259.099 63.2131C263.524 63.7714 265.494 68.0343 266.295 70.7139C267.084 69.9916 268.037 69.4719 269.071 69.1996C270.106 68.9273 271.191 68.9105 272.233 69.1508C274.578 69.7091 277.095 71.8305 277.095 76.1137V87.2787C279.003 87.1265 282.708 87.1772 284.961 89.6538C287.925 92.912 287.752 101.002 286.575 112.156C285.895 118.673 281.652 123.961 278.252 128.214C276.161 130.812 274.365 133.065 274.08 134.74C273.289 139.521 272.477 150.351 272.467 150.452C272.444 150.707 272.325 150.944 272.135 151.115C271.945 151.286 271.697 151.38 271.441 151.376ZM239.763 149.346H270.508C270.721 146.575 271.391 138.475 272.071 134.385C272.436 132.182 274.395 129.746 276.659 126.915C279.896 122.855 283.926 117.851 284.545 111.923C285.418 103.691 286.068 93.8864 283.449 91.0038C281.155 88.4764 276.344 89.4001 276.263 89.4102C276.114 89.439 275.961 89.4342 275.815 89.3963C275.669 89.3583 275.532 89.2881 275.417 89.1908C275.301 89.0935 275.208 88.9716 275.146 88.834C275.083 88.6963 275.052 88.5464 275.055 88.3952V76.1137C275.055 73.4747 273.817 71.6173 271.756 71.1301C270.768 70.9035 269.732 71.013 268.813 71.4413C267.893 71.8697 267.143 72.5924 266.681 73.495C266.585 73.6877 266.429 73.8446 266.238 73.9432C266.046 74.0417 265.828 74.0767 265.615 74.0431C265.401 74.0083 265.204 73.9057 265.052 73.7504C264.901 73.5952 264.803 73.3954 264.773 73.1804C264.773 73.1094 263.687 65.8419 258.825 65.2228C258.217 65.1091 257.591 65.1273 256.991 65.2762C256.39 65.425 255.828 65.701 255.344 66.0856C253.314 67.7705 253.1 71.2519 253.1 71.2823C253.091 71.4689 253.029 71.649 252.924 71.8031C252.818 71.9571 252.672 72.0789 252.502 72.1552C252.336 72.2251 252.155 72.2498 251.976 72.2266C251.798 72.2034 251.629 72.1332 251.487 72.0233C249.924 70.8787 248.01 70.3152 246.077 70.4298C243.783 70.6734 241.682 74.9769 241.123 76.469C241.058 76.6441 240.945 76.7976 240.797 76.9125C240.65 77.0275 240.473 77.0995 240.287 77.1205C240.101 77.1415 239.913 77.1107 239.744 77.0315C239.574 76.9524 239.43 76.828 239.327 76.672C239.134 76.3878 237.297 73.9315 233.795 75.9108C230.405 77.8088 230.415 78.7832 230.496 85.0458C230.496 86.0608 230.496 87.1367 230.496 88.375C230.496 90.4862 230.496 92.5872 230.425 94.6477C230.303 101.397 230.192 107.772 231.522 111.365C231.948 112.532 232.668 114.318 233.501 116.379C236.221 123.149 239.936 132.406 240.088 135.735C240.24 139.064 239.895 146.575 239.763 149.346Z" fill="#093F68"/>
<path d="M276.08 103.904C275.811 103.904 275.553 103.797 275.362 103.607C275.172 103.417 275.065 103.159 275.065 102.889V88.4155C275.065 88.1463 275.172 87.8881 275.362 87.6978C275.553 87.5074 275.811 87.4005 276.08 87.4005C276.349 87.4005 276.607 87.5074 276.798 87.6978C276.988 87.8881 277.095 88.1463 277.095 88.4155V102.889C277.095 103.159 276.988 103.417 276.798 103.607C276.607 103.797 276.349 103.904 276.08 103.904Z" fill="#093F68"/>
<path d="M265.778 95.3987C265.509 95.3987 265.25 95.2918 265.06 95.1014C264.87 94.9111 264.763 94.6529 264.763 94.3837V73.0687C264.763 72.7995 264.87 72.5413 265.06 72.351C265.25 72.1606 265.509 72.0537 265.778 72.0537C266.047 72.0537 266.305 72.1606 266.495 72.351C266.686 72.5413 266.793 72.7995 266.793 73.0687V94.3837C266.793 94.6529 266.686 94.9111 266.495 95.1014C266.305 95.2918 266.047 95.3987 265.778 95.3987Z" fill="#093F68"/>
<path d="M252.085 95.9468C251.816 95.9468 251.558 95.8399 251.368 95.6495C251.177 95.4592 251.07 95.201 251.07 94.9318V71.2316C251.07 70.9624 251.177 70.7042 251.368 70.5138C251.558 70.3235 251.816 70.2166 252.085 70.2166C252.355 70.2166 252.613 70.3235 252.803 70.5138C252.993 70.7042 253.1 70.9624 253.1 71.2316V94.9318C253.1 95.201 252.993 95.4592 252.803 95.6495C252.613 95.8399 252.355 95.9468 252.085 95.9468Z" fill="#093F68"/>
<path d="M240.149 94.3127C239.88 94.3127 239.622 94.2058 239.431 94.0154C239.241 93.8251 239.134 93.5669 239.134 93.2977V76.1138C239.134 75.8446 239.241 75.5864 239.431 75.396C239.622 75.2057 239.88 75.0988 240.149 75.0988C240.418 75.0988 240.676 75.2057 240.867 75.396C241.057 75.5864 241.164 75.8446 241.164 76.1138V93.2977C241.164 93.5669 241.057 93.8251 240.867 94.0154C240.676 94.2058 240.418 94.3127 240.149 94.3127Z" fill="#093F68"/>
<path d="M273.532 140.729H235.541V150.026H273.532V140.729Z" fill="#093F68"/>
<path d="M273.532 151.031H235.541C235.272 151.031 235.014 150.924 234.823 150.734C234.633 150.543 234.526 150.285 234.526 150.016V140.729C234.526 140.459 234.633 140.201 234.823 140.011C235.014 139.821 235.272 139.714 235.541 139.714H273.532C273.802 139.714 274.06 139.821 274.25 140.011C274.44 140.201 274.547 140.459 274.547 140.729V150.016C274.547 150.285 274.44 150.543 274.25 150.734C274.06 150.924 273.802 151.031 273.532 151.031ZM236.556 149.001H272.517V141.744H236.556V149.001Z" fill="#093F68"/>
<path d="M276.07 243.944V150.016H233.014V243.944" fill="#827EAC"/>
<path d="M276.08 244.959C275.811 244.959 275.553 244.852 275.362 244.662C275.172 244.471 275.065 244.213 275.065 243.944V151.031H234.029V243.944C234.029 244.213 233.922 244.471 233.731 244.662C233.541 244.852 233.283 244.959 233.014 244.959C232.744 244.959 232.486 244.852 232.296 244.662C232.105 244.471 231.999 244.213 231.999 243.944V150.016C231.999 149.747 232.105 149.489 232.296 149.298C232.486 149.108 232.744 149.001 233.014 149.001H276.08C276.349 149.001 276.607 149.108 276.798 149.298C276.988 149.489 277.095 149.747 277.095 150.016V243.944C277.095 244.213 276.988 244.471 276.798 244.662C276.607 244.852 276.349 244.959 276.08 244.959Z" fill="#093F68"/>
<path d="M242.768 163.86C244.214 163.86 245.386 162.688 245.386 161.242C245.386 159.795 244.214 158.623 242.768 158.623C241.321 158.623 240.149 159.795 240.149 161.242C240.149 162.688 241.321 163.86 242.768 163.86Z" fill="#093F68"/>
<path d="M204.36 220.142C204.36 220.142 215.292 220.954 220.174 221.776C225.056 222.599 232.354 233.175 242.697 234.261C253.04 235.347 261.423 235.611 264.408 232.901C267.392 230.191 266.306 224.781 266.306 224.781H278.607C285.844 224.781 286.392 216.833 281.652 214.489C281.652 214.489 289.772 213.372 290.473 207.668C291.295 201.202 283.469 200.796 283.469 200.796C284.781 199.025 285.421 196.845 285.276 194.645C284.91 191.205 278.577 188.85 278.577 188.85C278.577 188.85 282.2 186.505 279.663 181.978C277.125 177.451 275.501 178.182 266.275 178.182C257.049 178.182 247.822 177.462 242.93 179.268C238.038 181.075 223.026 187.591 218.864 187.774C214.703 187.957 204.32 187.409 204.32 187.409L204.36 220.142Z" fill="#FFC9B0"/>
<path d="M254.603 236.057C250.589 235.995 246.582 235.73 242.595 235.266C236.069 234.576 230.781 230.343 226.538 226.943C223.929 224.852 221.686 223.055 220.001 222.771C215.221 221.979 204.401 221.167 204.289 221.157C204.032 221.139 203.792 221.024 203.617 220.836C203.442 220.648 203.344 220.4 203.345 220.142V187.398C203.344 187.26 203.372 187.123 203.426 186.995C203.48 186.868 203.56 186.753 203.66 186.657C203.76 186.563 203.878 186.49 204.007 186.443C204.136 186.396 204.274 186.376 204.411 186.383C204.522 186.383 214.794 186.921 218.864 186.749C221.838 186.617 231.288 182.821 237.53 180.314C239.621 179.471 241.418 178.751 242.605 178.284C246.564 176.822 253.121 176.934 260.063 177.066C262.093 177.066 264.204 177.137 266.295 177.137C267.534 177.137 268.63 177.137 269.604 177.137C275.948 177.066 278.08 177.045 280.566 181.481C282.322 184.607 281.581 187.063 280.404 188.525C282.485 189.54 285.997 191.57 286.301 194.534C286.468 196.433 286.073 198.339 285.164 200.015C287.087 200.361 288.848 201.314 290.188 202.735C290.761 203.436 291.176 204.252 291.405 205.128C291.635 206.003 291.673 206.918 291.518 207.81C290.95 212.235 286.697 214.194 284.007 215.006C284.73 215.795 285.249 216.748 285.522 217.782C285.794 218.817 285.811 219.902 285.57 220.944C285.022 223.289 282.901 225.806 278.607 225.806H267.442C267.605 227.714 267.544 231.419 265.067 233.672C263.159 235.398 259.546 236.057 254.603 236.057ZM205.375 219.208C208.146 219.422 216.246 220.091 220.336 220.772C222.539 221.137 224.975 223.096 227.807 225.359C231.867 228.597 236.881 232.627 242.808 233.246C251.03 234.109 260.845 234.768 263.727 232.15C266.245 229.856 265.321 225.045 265.311 224.963C265.282 224.815 265.287 224.662 265.325 224.516C265.363 224.369 265.433 224.233 265.53 224.117C265.628 224.002 265.749 223.909 265.887 223.847C266.025 223.784 266.175 223.753 266.326 223.756H278.628C281.267 223.756 283.134 222.517 283.621 220.457C283.846 219.468 283.736 218.433 283.308 217.515C282.88 216.596 282.158 215.845 281.257 215.382C281.065 215.284 280.909 215.128 280.812 214.935C280.715 214.743 280.682 214.525 280.717 214.313C280.752 214.1 280.853 213.905 281.007 213.754C281.161 213.603 281.358 213.505 281.571 213.474C281.642 213.474 288.899 212.388 289.519 207.526C289.633 206.918 289.615 206.292 289.466 205.691C289.317 205.09 289.041 204.529 288.656 204.044C286.971 202.014 283.5 201.801 283.459 201.801C283.272 201.791 283.092 201.729 282.938 201.623C282.784 201.516 282.662 201.369 282.587 201.198C282.511 201.027 282.484 200.838 282.509 200.652C282.534 200.467 282.61 200.292 282.728 200.147C283.867 198.581 284.427 196.669 284.312 194.737C284.078 192.453 279.764 190.352 278.272 189.794C278.097 189.727 277.943 189.613 277.828 189.464C277.714 189.316 277.643 189.138 277.623 188.951C277.604 188.766 277.636 188.578 277.717 188.41C277.798 188.242 277.923 188.099 278.08 187.997C278.354 187.804 280.82 185.967 278.831 182.465C276.933 179.075 275.968 179.085 269.696 179.157C268.681 179.157 267.595 179.157 266.356 179.157C264.255 179.157 262.144 179.157 260.094 179.085C253.344 178.964 246.97 178.842 243.377 180.182C242.199 180.608 240.413 181.329 238.302 182.161C231.542 184.881 222.285 188.596 218.956 188.738C215.627 188.88 208.166 188.566 205.385 188.434L205.375 219.208Z" fill="#093F68"/>
<path d="M266.306 225.786H251.832C251.562 225.786 251.304 225.679 251.114 225.488C250.924 225.298 250.817 225.04 250.817 224.771C250.817 224.501 250.924 224.243 251.114 224.053C251.304 223.863 251.562 223.756 251.832 223.756H266.306C266.575 223.756 266.833 223.863 267.023 224.053C267.214 224.243 267.321 224.501 267.321 224.771C267.321 225.04 267.214 225.298 267.023 225.488C266.833 225.679 266.575 225.786 266.306 225.786Z" fill="#093F68"/>
<path d="M281.683 215.494H260.368C260.099 215.494 259.84 215.387 259.65 215.196C259.46 215.006 259.353 214.748 259.353 214.479C259.353 214.209 259.46 213.951 259.65 213.761C259.84 213.571 260.099 213.464 260.368 213.464H281.683C281.952 213.464 282.21 213.571 282.401 213.761C282.591 213.951 282.698 214.209 282.698 214.479C282.698 214.748 282.591 215.006 282.401 215.196C282.21 215.387 281.952 215.494 281.683 215.494Z" fill="#093F68"/>
<path d="M283.5 201.801H259.84C259.571 201.801 259.313 201.694 259.122 201.504C258.932 201.314 258.825 201.055 258.825 200.786C258.825 200.517 258.932 200.259 259.122 200.069C259.313 199.878 259.571 199.771 259.84 199.771H283.54C283.809 199.771 284.068 199.878 284.258 200.069C284.448 200.259 284.555 200.517 284.555 200.786C284.555 201.055 284.448 201.314 284.258 201.504C284.068 201.694 283.809 201.801 283.54 201.801H283.5Z" fill="#093F68"/>
<path d="M278.607 189.855H261.423C261.154 189.855 260.896 189.748 260.706 189.557C260.515 189.367 260.408 189.109 260.408 188.84C260.408 188.571 260.515 188.312 260.706 188.122C260.896 187.932 261.154 187.825 261.423 187.825H278.607C278.877 187.825 279.135 187.932 279.325 188.122C279.515 188.312 279.622 188.571 279.622 188.84C279.622 189.109 279.515 189.367 279.325 189.557C279.135 189.748 278.877 189.855 278.607 189.855Z" fill="#093F68"/>
<path d="M214.003 222.233V184.242H204.705V222.233H214.003Z" fill="white"/>
<path d="M214.003 223.248H204.705C204.436 223.248 204.178 223.141 203.987 222.951C203.797 222.761 203.69 222.502 203.69 222.233V184.242C203.69 183.972 203.797 183.714 203.987 183.524C204.178 183.334 204.436 183.227 204.705 183.227H214.003C214.272 183.227 214.53 183.334 214.72 183.524C214.911 183.714 215.018 183.972 215.018 184.242V222.233C215.018 222.502 214.911 222.761 214.72 222.951C214.53 223.141 214.272 223.248 214.003 223.248ZM205.72 221.218H212.988V185.257H205.72V221.218Z" fill="#093F68"/>
<path d="M110.787 224.771H204.705V181.714H110.787" fill="#B9B4E4"/>
<path d="M204.705 225.786H110.787C110.518 225.786 110.26 225.679 110.07 225.488C109.879 225.298 109.772 225.04 109.772 224.771C109.772 224.501 109.879 224.243 110.07 224.053C110.26 223.863 110.518 223.756 110.787 223.756H203.69V182.729H110.787C110.518 182.729 110.26 182.622 110.07 182.432C109.879 182.242 109.772 181.984 109.772 181.714C109.772 181.445 109.879 181.187 110.07 180.997C110.26 180.806 110.518 180.699 110.787 180.699H204.705C204.974 180.699 205.233 180.806 205.423 180.997C205.613 181.187 205.72 181.445 205.72 181.714V224.771C205.72 225.04 205.613 225.298 205.423 225.488C205.233 225.679 204.974 225.786 204.705 225.786Z" fill="#093F68"/>
<path d="M193.489 194.087C194.936 194.087 196.108 192.915 196.108 191.469C196.108 190.022 194.936 188.85 193.489 188.85C192.043 188.85 190.871 190.022 190.871 191.469C190.871 192.915 192.043 194.087 193.489 194.087Z" fill="#093F68"/>
<path d="M170.936 158.532C170.936 158.532 171.748 166.56 172.56 171.453C173.372 176.345 183.959 183.633 185.045 193.976C186.131 204.318 186.405 212.702 183.695 215.686C180.985 218.671 175.575 217.584 175.575 217.584V229.886C175.575 237.123 167.637 237.661 165.283 232.931C165.283 232.931 164.166 241.051 158.472 241.752C152.006 242.574 151.6 234.738 151.6 234.738C149.83 236.052 147.649 236.693 145.449 236.545C142.009 236.189 139.654 229.856 139.654 229.856C139.654 229.856 137.299 233.469 132.782 230.942C128.266 228.415 128.986 226.78 128.986 217.554C128.986 208.328 128.255 199.101 130.062 194.209C131.869 189.317 138.385 174.315 138.568 170.154C138.75 165.992 138.213 158.501 138.213 158.501L170.936 158.532Z" fill="#E28362"/>
<path d="M157.518 242.858C156.065 242.885 154.65 242.392 153.529 241.467C152.106 240.131 151.15 238.373 150.799 236.453C149.12 237.355 147.216 237.749 145.318 237.59C142.384 237.286 140.293 233.774 139.309 231.693C137.837 232.83 135.391 233.611 132.265 231.855C127.819 229.369 127.849 227.237 127.92 220.893C127.92 219.878 127.92 218.863 127.92 217.584C127.92 215.494 127.92 213.392 127.839 211.352C127.717 204.41 127.596 197.843 129.067 193.894C129.514 192.686 130.235 190.849 131.097 188.819C133.615 182.567 137.411 173.127 137.532 170.143C137.715 166.083 137.177 158.684 137.177 158.613C137.167 158.475 137.185 158.336 137.23 158.205C137.276 158.074 137.348 157.954 137.441 157.852C137.537 157.748 137.653 157.666 137.783 157.61C137.912 157.554 138.051 157.526 138.192 157.527H170.936C171.189 157.526 171.433 157.618 171.62 157.787C171.808 157.956 171.926 158.189 171.951 158.44C171.951 158.522 172.773 166.499 173.575 171.29C173.849 172.965 175.656 175.218 177.737 177.817C181.147 182.07 185.38 187.358 186.07 193.874C187.237 205.039 187.41 213.159 184.446 216.377C182.203 218.853 178.498 218.914 176.58 218.752V229.917C176.58 234.2 174.072 236.321 171.718 236.88C170.675 237.119 169.59 237.102 168.556 236.83C167.522 236.557 166.569 236.038 165.78 235.316C164.978 237.996 163.019 242.259 158.584 242.817C158.23 242.856 157.874 242.87 157.518 242.858ZM151.57 233.723C151.717 233.724 151.862 233.755 151.996 233.814C152.165 233.892 152.309 234.015 152.413 234.168C152.516 234.322 152.576 234.502 152.585 234.687C152.585 234.687 152.808 238.199 154.838 239.884C155.322 240.27 155.884 240.546 156.485 240.695C157.086 240.844 157.711 240.862 158.32 240.747C163.182 240.128 164.247 232.86 164.257 232.789C164.286 232.573 164.383 232.371 164.534 232.215C164.686 232.058 164.884 231.954 165.1 231.919C165.315 231.883 165.536 231.918 165.73 232.018C165.924 232.119 166.08 232.278 166.176 232.474C166.638 233.377 167.388 234.1 168.307 234.528C169.226 234.957 170.262 235.066 171.251 234.839C173.281 234.352 174.539 232.495 174.539 229.856V217.584C174.54 217.435 174.575 217.287 174.64 217.152C174.704 217.016 174.799 216.897 174.915 216.803C175.031 216.707 175.167 216.638 175.312 216.602C175.458 216.565 175.61 216.561 175.757 216.59C175.757 216.59 180.65 217.513 182.944 214.996C185.562 212.114 184.903 202.309 184.04 194.077C183.41 188.149 179.381 183.125 176.143 179.075C173.88 176.254 171.931 173.818 171.565 171.615C170.916 167.728 170.256 161.8 170.023 159.547H139.278C139.42 161.79 139.705 166.956 139.562 170.225C139.42 173.493 135.695 182.811 132.965 189.54C132.133 191.57 131.412 193.397 130.935 194.615C129.605 198.208 129.717 204.582 129.839 211.332C129.839 213.362 129.92 215.494 129.92 217.605C129.92 218.843 129.92 219.949 129.92 220.934C129.849 227.237 129.839 228.211 133.229 230.069C136.771 232.099 138.568 229.592 138.761 229.308C138.864 229.151 139.009 229.027 139.18 228.948C139.35 228.869 139.539 228.839 139.725 228.861C139.91 228.883 140.085 228.955 140.232 229.069C140.379 229.184 140.491 229.336 140.557 229.511C141.115 231.003 143.217 235.306 145.5 235.55C147.435 235.671 149.35 235.107 150.91 233.956C151.1 233.814 151.333 233.742 151.57 233.753V233.723Z" fill="#093F68"/>
<path d="M175.595 218.599C175.326 218.599 175.068 218.493 174.877 218.302C174.687 218.112 174.58 217.854 174.58 217.584V203.111C174.58 202.841 174.687 202.583 174.877 202.393C175.068 202.203 175.326 202.096 175.595 202.096C175.864 202.096 176.122 202.203 176.313 202.393C176.503 202.583 176.61 202.841 176.61 203.111V217.584C176.61 217.854 176.503 218.112 176.313 218.302C176.122 218.493 175.864 218.599 175.595 218.599Z" fill="#093F68"/>
<path d="M165.262 233.977C164.993 233.977 164.735 233.87 164.545 233.679C164.354 233.489 164.247 233.231 164.247 232.962V211.647C164.247 211.378 164.354 211.119 164.545 210.929C164.735 210.739 164.993 210.632 165.262 210.632C165.531 210.632 165.79 210.739 165.98 210.929C166.17 211.119 166.277 211.378 166.277 211.647V232.962C166.277 233.231 166.17 233.489 165.98 233.679C165.79 233.87 165.531 233.977 165.262 233.977Z" fill="#093F68"/>
<path d="M151.58 235.783C151.311 235.783 151.053 235.677 150.862 235.486C150.672 235.296 150.565 235.038 150.565 234.768V211.068C150.565 210.799 150.672 210.541 150.862 210.351C151.053 210.16 151.311 210.053 151.58 210.053C151.849 210.053 152.107 210.16 152.298 210.351C152.488 210.541 152.595 210.799 152.595 211.068V234.768C152.595 235.038 152.488 235.296 152.298 235.486C152.107 235.677 151.849 235.783 151.58 235.783Z" fill="#093F68"/>
<path d="M139.634 230.901C139.364 230.901 139.106 230.794 138.916 230.604C138.725 230.414 138.619 230.155 138.619 229.886V212.702C138.619 212.433 138.725 212.175 138.916 211.985C139.106 211.794 139.364 211.687 139.634 211.687C139.903 211.687 140.161 211.794 140.351 211.985C140.542 212.175 140.649 212.433 140.649 212.702V229.886C140.649 230.155 140.542 230.414 140.351 230.604C140.161 230.794 139.903 230.901 139.634 230.901Z" fill="#093F68"/>
<path d="M173.027 155.984H135.036V165.282H173.027V155.984Z" fill="#093F68"/>
<path d="M173.027 166.286H134.995C134.726 166.286 134.468 166.179 134.277 165.989C134.087 165.799 133.98 165.541 133.98 165.271V155.984C133.98 155.715 134.087 155.457 134.277 155.266C134.468 155.076 134.726 154.969 134.995 154.969H172.986C173.256 154.969 173.514 155.076 173.704 155.266C173.895 155.457 174.001 155.715 174.001 155.984V165.271C174.002 165.534 173.9 165.786 173.719 165.975C173.537 166.164 173.289 166.276 173.027 166.286ZM136.051 164.256H172.012V156.999H136.01L136.051 164.256Z" fill="#093F68"/>
</svg>
