<svg width="406" height="306" viewBox="0 0 406 306" fill="none" xmlns="http://www.w3.org/2000/svg">
<g clip-path="url(#clip0_199_6950)">
<path opacity="0.18" d="M81.4455 45.4703C69.5001 59.1532 60.2262 75.8006 44.8385 85.4546C34.522 91.9703 21.9686 94.8914 12.9336 103.069C-5.02786 119.358 -1.63973 148.483 7.18895 171.048C30.9493 231.752 84.9313 279.751 148.003 296.235C211.074 312.72 281.638 297.321 332.069 255.98C350.378 240.983 365.972 222.989 380.937 204.636C392.502 190.432 404.208 174.838 405.815 156.584C408.15 130.13 387.908 106.087 364.083 94.3702C340.257 82.6529 313.131 80.1987 286.981 75.7138C276.057 73.8459 264.893 71.4569 255.663 65.3213C226.342 45.7744 224.703 6.01818 184.642 3.57482C146.113 1.19661 106.987 16.15 81.4455 45.4703Z" fill="#B9B4E4"/>
<path d="M240.264 111.55C246.877 113.841 251.59 119.77 257.889 122.822C258.768 123.187 259.605 123.646 260.386 124.19C261.063 124.757 261.648 125.423 262.124 126.166C265.881 131.661 267.304 138.47 267.412 145.127C267.478 148.993 266.837 153.402 263.633 155.585C260.43 157.767 256.499 156.855 252.872 157.517C252.384 157.575 251.922 157.767 251.536 158.071C251.232 158.423 251.03 158.851 250.95 159.309C249.972 163.164 250.624 167.421 248.952 171.037C247.835 173.259 246.1 175.111 243.956 176.369C238.983 179.486 232.901 180.094 227.048 180.442C217.578 181.006 208.085 181.082 198.607 180.67C195.849 180.55 192.819 180.279 190.886 178.302C190.036 177.364 189.399 176.253 189.019 175.045C187.4 170.342 187.715 165.206 188.248 160.265C189.333 150.491 184.023 140.718 185.848 131.021C186.868 125.591 195.404 119.488 200.128 116.599C202.951 114.873 206.361 114.623 209.358 113.342C212.355 112.06 214.277 112.136 217.633 111.941C225.115 111.409 232.923 109.009 240.264 111.55Z" fill="#B9B4E4"/>
<path d="M240.264 111.55C246.877 113.841 251.59 119.77 257.889 122.822C258.768 123.187 259.605 123.646 260.386 124.19C261.063 124.757 261.648 125.423 262.124 126.166C265.881 131.661 267.304 138.47 267.412 145.127C267.478 148.993 266.837 153.402 263.633 155.585C260.43 157.767 256.499 156.855 252.872 157.518C252.384 157.575 251.922 157.767 251.536 158.071C251.232 158.423 251.03 158.851 250.95 159.309C249.972 163.164 250.624 167.421 248.952 171.037C247.835 173.259 246.1 175.111 243.956 176.369C238.983 179.486 232.901 180.094 227.048 180.442C217.578 181.006 208.085 181.082 198.607 180.67C195.849 180.55 192.819 180.279 190.886 178.302C190.036 177.364 189.399 176.253 189.019 175.045C187.4 170.342 187.715 165.206 188.248 160.265C189.333 150.492 185.554 141.228 187.379 131.52C188.4 126.09 191.006 125.852 195.73 122.963C198.553 121.236 206.361 114.623 209.358 113.298C212.355 111.973 214.277 112.093 217.633 111.897C225.115 111.409 232.923 109.009 240.264 111.55Z" fill="url(#paint0_linear_199_6950)"/>
<path d="M267.174 147.722C267.337 156.899 259.072 157.355 253.48 157.724C252.854 157.763 252.229 157.651 251.656 157.398C248.962 156.312 246.812 152.403 245.509 149.438C244.972 148.23 244.501 146.994 244.097 145.735C244.097 145.735 266.989 138.546 267.174 147.722Z" fill="url(#paint1_linear_199_6950)"/>
<path d="M364.832 162.469H43.9045V191.192H364.832V162.469Z" fill="white"/>
<path d="M330.31 191.507H43.9045V217.841H330.31V191.507Z" fill="white"/>
<path d="M362.009 216.375H36.4441V242.709H362.009V216.375Z" fill="white"/>
<path d="M391.264 237.584H35.5211V263.918H391.264V237.584Z" fill="white"/>
<path d="M218.589 109.269C219.36 112.755 220.12 116.502 218.752 119.803C217.933 121.634 216.528 123.141 214.759 124.085C212.989 125.029 210.955 125.356 208.978 125.015C207.704 124.824 206.545 124.171 205.72 123.18C205.303 122.595 205.001 121.935 204.83 121.236C203.867 117.923 204.221 114.365 205.817 111.306C207.413 108.247 210.129 105.922 213.398 104.817C214.484 104.448 216.276 103.731 217.296 104.556C218.317 105.382 218.339 108.151 218.589 109.269Z" fill="url(#paint2_linear_199_6950)"/>
<path d="M217.101 105.197C217.101 105.197 216.699 120.791 209.564 122.225C202.43 123.658 202.94 115.709 202.94 115.709L217.101 105.197Z" fill="url(#paint3_linear_199_6950)"/>
<path d="M179.832 93.5883C180.199 95.5744 180.975 97.4623 182.112 99.1318C183.249 100.801 184.721 102.216 186.434 103.286C186.838 102.868 187.139 102.362 187.312 101.808C187.486 101.253 187.527 100.666 187.433 100.093C187.235 98.9523 186.956 97.8273 186.597 96.7266C185.674 93.0561 186.325 89.2011 186.445 85.422C186.445 84.3361 186.369 83.0764 185.457 82.5008C180.44 79.3733 179.397 91.0797 179.832 93.5883Z" fill="#3E3E54"/>
<path d="M134.374 140.642H73.4312V162.448H134.374V140.642Z" fill="#B9B4E4"/>
<path d="M69.5652 140.642H17.6899V162.448H69.5652V140.642Z" fill="#B9B4E4"/>
<path d="M69.5652 190.791H17.6899V212.596H69.5652V190.791Z" fill="#B9B4E4"/>
<path d="M69.5652 240.928H17.6899V262.734H69.5652V240.928Z" fill="#B9B4E4"/>
<path d="M167.81 166.324H106.867V188.13H167.81V166.324Z" fill="#B9B4E4"/>
<path d="M102.176 166.324H41.2331V188.13H102.176V166.324Z" fill="#B9B4E4"/>
<path d="M232.217 166.324H171.274V188.13H232.217V166.324Z" fill="#B9B4E4"/>
<path d="M297.45 166.324H236.507V188.13H297.45V166.324Z" fill="#B9B4E4"/>
<path d="M291.169 130.08L230.618 123.182L228.149 144.847L288.701 151.746L291.169 130.08Z" fill="#B9B4E4"/>
<path d="M291.169 130.08L230.618 123.182L228.149 144.847L288.701 151.746L291.169 130.08Z" fill="url(#paint4_linear_199_6950)"/>
<path d="M361.857 166.324H300.914V188.13H361.857V166.324Z" fill="#B9B4E4"/>
<path d="M167.81 215.854H106.867V237.66H167.81V215.854Z" fill="#B9B4E4"/>
<path d="M102.176 215.854H41.2331V237.66H102.176V215.854Z" fill="#B9B4E4"/>
<path d="M232.217 215.854H171.274V237.66H232.217V215.854Z" fill="#B9B4E4"/>
<path d="M297.45 215.854H236.507V237.66H297.45V215.854Z" fill="#B9B4E4"/>
<path d="M361.857 215.854H300.914V237.66H361.857V215.854Z" fill="#B9B4E4"/>
<path d="M201.029 140.642H140.086V162.448H201.029V140.642Z" fill="#B9B4E4"/>
<path d="M201.029 140.642H140.086V162.448H201.029V140.642Z" fill="url(#paint5_linear_199_6950)"/>
<path d="M134.374 191.399H73.4312V213.204H134.374V191.399Z" fill="#B9B4E4"/>
<path d="M198.89 191.399H137.947V213.204H198.89V191.399Z" fill="#B9B4E4"/>
<path d="M263.101 191.399H202.158V213.204H263.101V191.399Z" fill="#B9B4E4"/>
<path d="M327.009 191.399H266.066V213.204H327.009V191.399Z" fill="#B9B4E4"/>
<path d="M134.374 242.156H73.4312V263.961H134.374V242.156Z" fill="#B9B4E4"/>
<path d="M198.89 242.156H137.947V263.961H198.89V242.156Z" fill="#B9B4E4"/>
<path d="M263.101 242.156H202.158V263.961H263.101V242.156Z" fill="#B9B4E4"/>
<path d="M327.009 242.156H266.066V263.961H327.009V242.156Z" fill="#B9B4E4"/>
<path d="M391.209 242.156H330.267V263.961H391.209V242.156Z" fill="#B9B4E4"/>
<path d="M355.949 140.642H295.006V162.448H355.949V140.642Z" fill="#B9B4E4"/>
<path d="M43.2747 91.1123H12.6946V263.158H43.2747V91.1123Z" fill="#B9B4E4"/>
<path d="M43.2747 91.1123H12.6946V263.158H43.2747V91.1123Z" fill="url(#paint6_linear_199_6950)"/>
<path d="M261.896 118.988C266.806 118.689 271.663 120.144 275.6 123.093C276.523 123.723 277.31 124.531 277.913 125.471C278.588 126.779 278.878 128.252 278.75 129.718C278.708 131.851 278.167 133.945 277.169 135.831C276.172 137.717 274.745 139.342 273.005 140.577C269.454 142.912 264.318 142.955 261.06 140.229C257.802 137.504 256.966 133.182 255.185 129.446C254.831 128.541 254.229 127.754 253.447 127.176C250.352 125.222 248.3 125.233 252.731 122.149C255.45 120.297 258.614 119.206 261.896 118.988Z" fill="url(#paint7_linear_199_6950)"/>
<path d="M194.503 117.338C197.033 119.781 198.499 121.128 202.017 121.063C208.337 120.965 215.7 113.255 216.797 108.607C217.417 105.713 217.546 102.736 217.177 99.7998C216.525 93.5122 214.408 87.1812 210.064 82.5986C205.72 78.0159 198.89 75.4857 192.841 77.3426C173.805 83.1958 185.294 108.455 194.503 117.338Z" fill="url(#paint8_linear_199_6950)"/>
<path d="M193.525 68.8072C191.764 68.7774 190.009 69.0416 188.334 69.5891C184.74 70.8162 181.949 73.6179 179.299 76.3327C178.213 77.473 176.975 78.9173 177.345 80.4702C177.479 80.9545 177.7 81.4107 177.996 81.8167C179.097 83.7739 180.873 85.2638 182.992 86.0085C184.316 86.2747 185.677 86.2968 187.01 86.0736L199.313 84.8139C202.571 84.4773 208.088 84.2384 208.946 88.3867C209.101 89.9417 209.138 91.5065 209.054 93.0671C209.108 94.4877 209.56 95.8647 210.357 97.0416C210.764 97.6158 211.28 98.1034 211.877 98.4763C212.473 98.8491 213.138 99.0997 213.832 99.2135C214.482 99.326 215.151 99.2311 215.744 98.942C216.84 98.1947 217.649 97.0951 218.035 95.8253C218.404 94.0892 218.404 92.2948 218.035 90.5586C217.567 86.4728 216.379 82.5022 214.527 78.8304C213.593 77.1146 212.269 76.6585 210.683 75.7029C209.098 74.7473 207.621 73.2921 205.948 72.2713C202.203 69.9996 197.906 68.8012 193.525 68.8072Z" fill="#3E3E54"/>
<path d="M214.668 97.5954C214.851 96.5546 215.173 95.5429 215.624 94.5874C215.867 93.8179 216.38 93.1623 217.068 92.7413C217.49 92.5595 217.956 92.5038 218.409 92.5808C218.862 92.6579 219.282 92.8645 219.62 93.1757C220.284 93.8186 220.696 94.6774 220.782 95.5973C220.919 97.4267 220.511 99.2556 219.609 100.853C219.363 101.456 218.993 101.999 218.524 102.45C218.278 102.669 217.977 102.816 217.653 102.876C217.329 102.935 216.996 102.904 216.688 102.786C216.181 102.458 215.798 101.968 215.602 101.396C214.891 100.264 214.588 98.9232 214.744 97.5954" fill="url(#paint9_linear_199_6950)"/>
<path d="M216.688 99.246C216.984 99.0777 217.223 98.8242 217.372 98.5184C217.535 98.0189 217.188 97.4325 217.166 96.9438C217.172 96.5318 217.309 96.1323 217.557 95.8036C217.796 95.4344 218.198 95.0651 218.643 95.1954C218.78 95.2561 218.902 95.3444 219.003 95.4546C219.104 95.5648 219.181 95.6947 219.229 95.8361C219.474 96.4827 219.581 97.1736 219.542 97.8639C219.502 98.5543 219.318 99.2287 219.001 99.8433C218.813 100.324 218.493 100.742 218.078 101.049C217.953 101.145 217.802 101.202 217.644 101.212C217.488 101.201 217.336 101.156 217.199 101.081C216.829 100.918 216.221 100.658 216.058 100.256C215.809 99.6804 216.232 99.5501 216.688 99.246Z" fill="url(#paint10_linear_199_6950)"/>
<path d="M166.29 146.615C167.488 147.39 168.847 147.881 170.264 148.048C171.493 148.216 172.739 148.216 173.967 148.048C178.485 147.418 182.427 144.497 185.25 140.914C185.557 140.568 185.787 140.16 185.924 139.719C186.271 138.22 184.577 137.091 183.111 136.613C178.105 135.006 172.719 135.256 167.463 135.527C166.093 135.523 164.733 135.758 163.445 136.222C161.696 136.982 161.707 137.591 162.142 139.295C162.837 142.021 163.825 144.931 166.29 146.615Z" fill="url(#paint11_linear_199_6950)"/>
</g>
<defs>
<linearGradient id="paint0_linear_199_6950" x1="223.899" y1="126.395" x2="234.291" y2="208.948" gradientUnits="userSpaceOnUse">
<stop stop-opacity="0"/>
<stop offset="0.99"/>
</linearGradient>
<linearGradient id="paint1_linear_199_6950" x1="253.067" y1="151.067" x2="269.78" y2="140.468" gradientUnits="userSpaceOnUse">
<stop stop-opacity="0"/>
<stop offset="0.99"/>
</linearGradient>
<linearGradient id="paint2_linear_199_6950" x1="206.395" y1="110.264" x2="218.986" y2="120.006" gradientUnits="userSpaceOnUse">
<stop stop-color="#E5C5D5"/>
<stop offset="0.42" stop-color="#EAD4D1"/>
<stop offset="1" stop-color="#F0E9CB"/>
</linearGradient>
<linearGradient id="paint3_linear_199_6950" x1="206.687" y1="109.704" x2="230.23" y2="129.066" gradientUnits="userSpaceOnUse">
<stop stop-opacity="0"/>
<stop offset="0.99"/>
</linearGradient>
<linearGradient id="paint4_linear_199_6950" x1="257.32" y1="150.606" x2="266.192" y2="100.457" gradientUnits="userSpaceOnUse">
<stop stop-opacity="0"/>
<stop offset="0.99"/>
</linearGradient>
<linearGradient id="paint5_linear_199_6950" x1="170.59" y1="150.73" x2="171.405" y2="121.779" gradientUnits="userSpaceOnUse">
<stop stop-opacity="0"/>
<stop offset="0.99"/>
</linearGradient>
<linearGradient id="paint6_linear_199_6950" x1="33.7727" y1="77.3969" x2="11.7607" y2="456.542" gradientUnits="userSpaceOnUse">
<stop stop-opacity="0"/>
<stop offset="0.99"/>
</linearGradient>
<linearGradient id="paint7_linear_199_6950" x1="250.222" y1="130.619" x2="278.761" y2="130.619" gradientUnits="userSpaceOnUse">
<stop stop-color="#E5C5D5"/>
<stop offset="0.42" stop-color="#EAD4D1"/>
<stop offset="1" stop-color="#F0E9CB"/>
</linearGradient>
<linearGradient id="paint8_linear_199_6950" x1="181.197" y1="91.3835" x2="217.992" y2="105.766" gradientUnits="userSpaceOnUse">
<stop stop-color="#E5C5D5"/>
<stop offset="0.42" stop-color="#EAD4D1"/>
<stop offset="1" stop-color="#F0E9CB"/>
</linearGradient>
<linearGradient id="paint9_linear_199_6950" x1="219.5" y1="95.1392" x2="215.213" y2="100.797" gradientUnits="userSpaceOnUse">
<stop stop-color="#E5C5D5"/>
<stop offset="0.42" stop-color="#EAD4D1"/>
<stop offset="1" stop-color="#F0E9CB"/>
</linearGradient>
<linearGradient id="paint10_linear_199_6950" x1="222.096" y1="97.5648" x2="205.649" y2="99.6121" gradientUnits="userSpaceOnUse">
<stop stop-opacity="0"/>
<stop offset="0.99"/>
</linearGradient>
<linearGradient id="paint11_linear_199_6950" x1="161.892" y1="141.75" x2="185.967" y2="141.75" gradientUnits="userSpaceOnUse">
<stop stop-color="#E5C5D5"/>
<stop offset="0.42" stop-color="#EAD4D1"/>
<stop offset="1" stop-color="#F0E9CB"/>
</linearGradient>
<clipPath id="clip0_199_6950">
<rect width="406" height="306" fill="white"/>
</clipPath>
</defs>
</svg>
