<svg width="106" height="106" viewBox="0 0 106 106" fill="none" xmlns="http://www.w3.org/2000/svg">
<path d="M73.8922 105.5H53V94.7867C53.0032 93.7959 52.8058 92.8147 52.4195 91.9023C52.0332 90.9899 51.466 90.1653 50.7523 89.4781C48.9547 87.7062 46.339 86.7101 43.5875 86.7499C41.1398 86.773 38.7787 87.6585 36.9195 89.2507C35.7008 90.3288 34.25 92.1945 34.25 94.9742V105.5H13.5359C10.0797 105.496 6.76613 104.122 4.32223 101.678C1.87832 99.2338 0.503699 95.9202 0.499977 92.464V71.7499H11.2133C13.3601 71.7499 15.4484 70.8312 17.0937 69.1718C18.0091 68.2491 18.733 67.1546 19.2237 65.9511C19.7144 64.7476 19.9623 63.459 19.9531 62.1593C19.8828 57.1929 15.7953 52.9999 11.0258 52.9999H0.499977V32.0609C0.493215 30.3543 0.83312 28.6642 1.49908 27.093C2.16504 25.5217 3.14318 24.1021 4.3742 22.9202C6.83264 20.5489 10.1202 19.2318 13.5359 19.2499H28.3578V15.8562C28.3578 13.8166 28.764 11.7974 29.5528 9.91649C30.3416 8.03558 31.4971 6.33062 32.9519 4.90112C34.4067 3.47161 36.1317 2.34619 38.0262 1.59053C39.9206 0.834879 41.9466 0.464131 43.9859 0.499924C52.3039 0.645236 59.0703 7.62024 59.0703 16.046V19.2499H73.8922C75.5857 19.2317 77.2659 19.5519 78.8341 20.1916C80.4023 20.8313 81.827 21.7777 83.0246 22.9753C84.2222 24.1729 85.1686 25.5976 85.8083 27.1658C86.448 28.734 86.7682 30.4142 86.75 32.1077V46.9296H89.9515C98.525 46.9296 105.5 53.7265 105.5 62.0796C105.5 70.6601 98.6117 77.6421 90.1437 77.6421H86.75V92.464C86.75 99.6523 80.982 105.5 73.8922 105.5Z" fill="#504C7C"/>
</svg>
