<svg width="69" height="70" viewBox="0 0 69 70" fill="none" xmlns="http://www.w3.org/2000/svg">
<path d="M27.3125 35.1903C33.6548 35.1903 38.8125 30.0541 38.8125 23.7383C38.8125 17.4226 33.6548 12.2864 27.3125 12.2864C20.9703 12.2864 15.8125 17.4226 15.8125 23.7383C15.8125 30.0541 20.9703 35.1903 27.3125 35.1903ZM31.625 38.0532H23C13.4866 38.0532 5.75 45.7575 5.75 55.2312V58.0941H48.875V55.2312C48.875 45.7575 41.1384 38.0532 31.625 38.0532Z" fill="#504C7C"/>
<path d="M47.7364 32.4646C49.4874 29.4931 50.2436 26.0438 49.8955 22.616C49.3809 17.5084 46.5174 12.9935 41.8369 9.9043L38.66 14.674C41.8772 16.7984 43.835 19.8245 44.1743 23.1886C44.3307 24.752 44.1353 26.3306 43.6021 27.8094C43.069 29.2882 42.2116 30.63 41.0923 31.7374L37.6653 35.1501L42.317 36.51C54.484 40.0601 54.6249 52.245 54.6249 52.3681H60.3749C60.3749 47.2462 57.6264 37.2372 47.7364 32.4646Z" fill="#504C7C"/>
</svg>
