<svg width="120" height="120" viewBox="0 0 120 120" fill="none" xmlns="http://www.w3.org/2000/svg">
<path d="M95 35C95 35 70 70 32.5 70C22.5 70 5 75 5 95V115H60V95C60 82.5 75 90 95 55L87.5 47.5L95 35ZM15 25V10H115V80H100L15 25ZM55 5H75V15H55V5ZM32.5 70C37.1413 70 41.5925 68.1563 44.8744 64.8744C48.1563 61.5925 50 57.1413 50 52.5C50 47.8587 48.1563 43.4075 44.8744 40.1256C41.5925 36.8437 37.1413 35 32.5 35C27.8587 35 23.4075 36.8437 20.1256 40.1256C16.8437 43.4075 15 47.8587 15 52.5C15 57.1413 16.8437 61.5925 20.1256 64.8744C23.4075 68.1563 27.8587 70 32.5 70V70Z" stroke="#504C7C" stroke-width="10"/>
</svg>
