<svg width="24" height="24" viewBox="0 0 24 24" fill="none" xmlns="http://www.w3.org/2000/svg">
<path d="M21.5756 6.61312L17.3869 2.42344C17.2128 2.24925 17.006 2.11107 16.7785 2.01679C16.551 1.92252 16.3071 1.87399 16.0608 1.87399C15.8145 1.87399 15.5706 1.92252 15.3431 2.01679C15.1155 2.11107 14.9088 2.24925 14.7347 2.42344L3.17438 13.9847C2.99963 14.1583 2.86109 14.3649 2.76679 14.5924C2.67248 14.82 2.62429 15.064 2.62501 15.3103V19.5C2.62501 19.9973 2.82255 20.4742 3.17418 20.8258C3.52581 21.1775 4.00273 21.375 4.50001 21.375H8.6897C8.93601 21.3757 9.18001 21.3275 9.40756 21.2331C9.63511 21.1388 9.84168 21.0003 10.0153 20.8256L21.5756 9.26437C21.9271 8.91276 22.1246 8.43593 22.1246 7.93875C22.1246 7.44157 21.9271 6.96474 21.5756 6.61312ZM8.53126 19.125H4.87501V15.4687L12.75 7.59375L16.4063 11.25L8.53126 19.125ZM18 9.65625L14.3438 6L16.0631 4.28062L19.7194 7.93687L18 9.65625Z" fill="black"/>
</svg>
