<svg width="24" height="24" viewBox="0 0 24 24" fill="none" xmlns="http://www.w3.org/2000/svg">
<path d="M6 22C5.45 22 4.979 21.804 4.587 21.412C4.195 21.02 3.99934 20.5493 4 20V4C4 3.45 4.196 2.979 4.588 2.587C4.98 2.195 5.45067 1.99934 6 2H18C18.55 2 19.021 2.196 19.413 2.588C19.805 2.98 20.0007 3.45067 20 4V20C20 20.55 19.804 21.021 19.412 21.413C19.02 21.805 18.5493 22.0007 18 22H6ZM6 20H18V4H16V10.125C16 10.325 15.9167 10.471 15.75 10.563C15.5833 10.655 15.4167 10.6507 15.25 10.55L14.025 9.8C13.8583 9.7 13.6873 9.65 13.512 9.65C13.3367 9.65 13.166 9.7 13 9.8L11.775 10.55C11.6083 10.65 11.4377 10.6543 11.263 10.563C11.0883 10.4717 11.0007 10.3253 11 10.124V4H6V20ZM11 10.125C11 10.325 11.0877 10.471 11.263 10.563C11.0877 10.4717 10.9993 10.3253 11 10.124V10.125Z" fill="black"/>
</svg>
